<?xml version="1.0" encoding="UTF-8"?>
<svg width="1138px" height="414px" viewBox="0 0 1138 414" version="1.1" xmlns="http://www.w3.org/2000/svg" xmlns:xlink="http://www.w3.org/1999/xlink">
    <!-- Generator: Sketch 59.1 (86144) - https://sketch.com -->
    <title>img_physician_illustration header</title>
    <desc>Created with Sketch.</desc>
    <defs>
        <rect id="path-1" x="0" y="0" width="1440" height="425"></rect>
        <linearGradient x1="50%" y1="50%" x2="50%" y2="-12.50155%" id="linearGradient-3">
            <stop stop-color="#E8F3FE" stop-opacity="0" offset="0%"></stop>
            <stop stop-color="#AED1FF" offset="100%"></stop>
        </linearGradient>
        <rect id="path-4" x="0" y="0" width="17.9154772" height="60.2831391"></rect>
        <rect id="path-6" x="0" y="0" width="38.273974" height="31.7708436"></rect>
        <rect id="path-8" x="0" y="0" width="60.2611505" height="43.1757618"></rect>
        <rect id="path-10" x="0" y="0" width="69.2188891" height="25.2537475"></rect>
        <polygon id="path-12" points="0 0 33.3879348 0 33.3879348 105.088175 0 105.088175"></polygon>
        <rect id="path-14" x="0" y="0" width="32.1610963" height="35.0293916"></rect>
        <rect id="path-16" x="0" y="0" width="45.8295622" height="50.5074949"></rect>
        <rect id="path-18" x="0" y="0" width="40.943523" height="59.4685021"></rect>
        <rect id="path-20" x="0" y="0" width="21.1728367" height="92.8686197"></rect>
        <rect id="path-22" x="0" y="0" width="50.4890721" height="67.6148722"></rect>
        <polygon id="path-24" points="0.610754904 0.814637015 26.6696308 0.814637015 26.6696308 57.8392281 0.610754904 57.8392281"></polygon>
        <polygon id="path-26" points="0 0 34.2022746 0 34.2022746 80.6490645 0 80.6490645"></polygon>
        <rect id="path-28" x="0" y="0" width="55.3751113" height="87.1661606"></rect>
        <rect id="path-30" x="0" y="0" width="83.0626669" height="48.8782209"></rect>
        <polygon id="path-32" points="0 0 33.3879348 0 33.3879348 80.6490645 0 80.6490645"></polygon>
        <polygon id="path-34" points="0 0 33.3879348 0 33.3879348 80.6490645 0 80.6490645"></polygon>
        <polygon id="path-36" points="0 0 41.5313335 0 41.5313335 82.2783385 0 82.2783385"></polygon>
        <rect id="path-38" x="0" y="0" width="22.8015164" height="41.5464878"></rect>
        <rect id="path-40" x="0" y="0" width="29.3162354" height="52.951406"></rect>
        <rect id="path-42" x="0" y="0" width="29.3162354" height="52.951406"></rect>
        <rect id="path-44" x="0" y="0" width="17.9154772" height="60.2831391"></rect>
        <rect id="path-46" x="0" y="0" width="38.273974" height="31.7708436"></rect>
        <rect id="path-48" x="0" y="0" width="60.2611505" height="43.1757618"></rect>
        <rect id="path-50" x="0" y="0" width="69.2188891" height="25.2537475"></rect>
        <polygon id="path-52" points="0 0 33.3879348 0 33.3879348 105.088175 0 105.088175"></polygon>
        <rect id="path-54" x="0" y="0" width="32.1610963" height="35.0293916"></rect>
        <rect id="path-56" x="0" y="0" width="45.8295622" height="50.5074949"></rect>
        <rect id="path-58" x="0" y="0" width="40.943523" height="59.4685021"></rect>
        <rect id="path-60" x="0" y="0" width="21.1728367" height="92.8686197"></rect>
        <rect id="path-62" x="0" y="0" width="50.4890721" height="67.6148722"></rect>
        <polygon id="path-64" points="0.610754904 0.814637015 26.6696308 0.814637015 26.6696308 57.8392281 0.610754904 57.8392281"></polygon>
        <polygon id="path-66" points="0 0 34.2022746 0 34.2022746 80.6490645 0 80.6490645"></polygon>
        <rect id="path-68" x="0" y="0" width="55.3751113" height="87.1661606"></rect>
        <rect id="path-70" x="0" y="0" width="83.0626669" height="48.8782209"></rect>
        <polygon id="path-72" points="0 0 33.3879348 0 33.3879348 80.6490645 0 80.6490645"></polygon>
        <polygon id="path-74" points="0 0 33.3879348 0 33.3879348 80.6490645 0 80.6490645"></polygon>
        <polygon id="path-76" points="0 0 41.5313335 0 41.5313335 82.2783385 0 82.2783385"></polygon>
        <rect id="path-78" x="0" y="0" width="22.8015164" height="41.5464878"></rect>
        <rect id="path-80" x="0" y="0" width="29.3162354" height="52.951406"></rect>
        <rect id="path-82" x="0" y="0" width="29.3162354" height="52.951406"></rect>
        <path d="M9.76506125,3.07233554 L0,13.2369135 L0,13.2369135 L65,46.7681764 L60.3726112,29.0058713 C59.5221788,25.7414733 57.4361264,22.9354751 54.5551354,21.1806476 L22.1784527,1.45983177 C18.1742776,-0.979133331 13.013215,-0.308709549 9.76506125,3.07233554 Z" id="path-84"></path>
        <path d="M106.143972,0.571263235 C106.313093,0.730838628 125.540209,6.59458936 163.82532,18.1625154 C179.736436,22.9700911 188.737632,39.7659098 183.930056,55.6770254 C183.482924,57.156849 182.922439,58.6000223 182.253577,59.9937325 L128.349678,172.313484 C125.438854,178.378778 124.903847,185.313975 126.849968,191.753952 L167.107926,324.972975 L167.107926,324.972975 L-4.54747351e-13,324.972975 L3.97556007,107.292938 C4.19136264,95.476764 6.89952139,83.8392879 11.9228589,73.1418756 L16.9804432,62.3715331 C25.2339403,44.7953574 38.6698235,30.1667877 55.4823738,20.4518343 L68.8174016,12.7463304 L68.8174016,12.7463304" id="path-86"></path>
        <path d="M5.75934209,32.4775852 L22.9285557,49.8772115 L22.9285557,49.8772115 L25.410236,61.0341166 C25.6001837,61.8880653 26.4464289,62.4263445 27.3003776,62.2363969 C27.616284,62.1661284 27.9030871,62.0007826 28.1221939,61.7626088 L31.6209639,57.9593698 L31.6209639,57.9593698 L49.9927172,70.5116067 C53.3075755,72.7764361 57.7927122,72.2027346 60.430776,69.1764569 L74.101003,53.4945378 L74.101003,53.4945378 L98.6975868,75.8555246 L100.050728,76.9185772 C104.178238,80.1612252 110.152932,79.4439028 113.39558,75.3163927 C113.459262,75.2353327 113.521621,75.1532421 113.582633,75.0701533 L119.676757,66.7708314 L119.676757,66.7708314 L121.620754,42.8971738 L77.5680396,15.2253262 L68.9655988,7.40370881 C67.1389583,5.74286817 64.3117962,5.87727553 62.6509555,7.70391604 C62.6464689,7.70885056 62.6419934,7.71379511 62.6375289,7.71874965 C60.8833715,9.665457 60.7242033,12.5719134 62.2552903,14.6985328 L62.5850147,15.156507 L62.5850147,15.156507 C50.1788127,23.8377957 34.4491867,26.2778398 19.995962,21.7630954 L13.5229058,19.7411111 C9.47061474,18.4752996 5.15944077,20.7341876 3.89362926,24.7864787 C3.04664032,27.4979769 3.76409215,30.4555588 5.75934209,32.4775852 Z" id="path-88"></path>
        <path d="M66.0310296,46.46107 L44.4730319,21.536527 C43.1555045,20.0132526 41.4479671,18.8775956 39.5337492,18.2514863 C34.7271402,16.6793235 31.3594685,15.2221547 29.430734,13.8799799 C27.8822726,12.8024308 26.1926994,10.3430801 24.3620144,6.50192773 L24.3620096,6.50193003 C23.9856345,5.71221795 23.0403341,5.37714211 22.250622,5.75351719 C21.7186814,6.00703893 21.371441,6.53488985 21.3492392,7.12373715 C21.2664461,9.31961853 21.21869,10.6463283 21.2059709,11.1038664 C21.182859,11.9352614 21.182859,13.2269565 21.2059709,14.9789518 L12.2815586,12.1359487 C9.74665903,11.3284437 7.03709243,12.7287498 6.22956507,15.2636422 C5.81555367,16.5632569 5.97190253,17.9774646 6.65980555,19.1552562 C6.65980555,19.1552562 6.65980555,19.1552562 6.65980555,19.1552562 C1.60568963,21.3780043 0.815625604,24.7160974 4.28961347,29.1695353 C-0.969551624,32.0784549 -1.3928234,35.4518435 3.01979814,39.2897011 C-1.81892782,44.0706137 0.455511708,48.0199053 9.84311672,51.1375758 C23.9245242,55.8140815 24.8799992,56.0761999 33.0155148,56.3908127 C38.4391919,56.6005546 44.7298343,59.5359671 51.887442,65.1970501 L66.0310296,46.46107 Z" id="path-90"></path>
        <path d="M34.0243298,111.150224 L3.90798505e-13,83.3180253 L3.15063518,81.1786347 C6.45245519,78.9365829 8.28083298,75.0819815 7.92821532,71.1064975 C7.15426194,62.3807882 6.47465589,55.705381 5.88939715,51.0802758 C4.8064749,42.5223016 13.2756888,38.7731007 18.8448986,42.0266716 C22.557705,44.1957189 25.7109773,48.9019897 28.3047152,56.1454843 C34.3084127,55.4183368 36.2149509,52.337519 34.0243298,46.9030309 C30.7383981,38.7512988 33.0420838,32.8974875 34.0243298,23.9143761 C34.6791604,17.9256351 32.0598378,9.95417645 26.1663618,-1.20792265e-13 L37.1239199,1.04234743 C42.5351509,1.55709558 47.5037782,4.25218081 50.8861696,8.50727363 L60.4073692,20.4850678 C62.1918446,22.7299614 63.3401728,25.4132003 63.7321937,28.2540135 L64.7181588,35.3988926 L64.7181588,35.3988926 L75.4658451,46.8800895 C76.9755743,48.492855 76.8920469,51.0241372 75.2792813,52.5338664 C74.9320942,52.8588724 74.5297314,53.119361 74.091088,53.3030995 L69.9092982,55.054763 L69.9092982,55.054763 L71.3694869,60.3755575 C71.8559406,62.1481507 71.2891789,64.0429746 69.9092982,65.2573276 L69.9092982,65.2573276 L69.9092982,65.2573276 L70.9676274,68.3362691 C71.7402097,70.5839022 71.6869994,73.033224 70.8175346,75.2451844 L69.9092982,77.5557819 L69.9092982,77.5557819 L70.8981438,83.0680607 C71.4832486,86.3297039 69.3134857,89.4481093 66.0518425,90.0332142 C65.7021875,90.0959387 65.3476528,90.1274868 64.9924163,90.1274868 L60.3364984,90.1274868 L60.3364984,90.1274868 C54.7612012,96.9217812 47.489988,102.122671 39.2587609,105.203788 L38.2728442,105.572836 L38.2728442,105.572836 L34.0243298,111.150224 Z" id="path-92"></path>
        <linearGradient x1="50%" y1="0%" x2="50%" y2="100%" id="linearGradient-94">
            <stop stop-color="#DCEAFB" offset="0%"></stop>
            <stop stop-color="#FBFDFF" offset="100%"></stop>
        </linearGradient>
        <path d="M44.1142237,3.11451636 L22.4836339,28.1361581 C6.193056,46.9806282 -1.79281343,71.6075643 0.339046316,96.4259477 L11.0637122,221.278847 L11.0637122,221.278847 L161.501419,221.278847 L152.019864,154.435472 L149.263079,74.1694791 C148.431986,49.9715266 133.91203,28.3522367 111.826687,18.4290714 L111.826687,18.4290714 L111.826687,18.4290714 L53.5837921,0.402741587 C50.1688345,-0.65419683 46.4520704,0.410162897 44.1142237,3.11451636 Z" id="path-95"></path>
        <path d="M153.145517,30.3415735 L147.106347,32.7652705 C141.400766,35.055088 136.119479,38.2853121 131.48211,42.3216121 L80.0814578,87.0600088 L80.0814578,87.0600088 L44.1179402,29.3683723 C35.5660436,15.6496667 22.2765666,5.54674064 6.77026349,0.975921922 L3.45949094,-2.55795385e-13 L3.45949094,-2.55795385e-13 C-1.334218,12.9416407 -1.14605696,39.7659047 4.02397405,80.472792 L56.1143113,134.235868 C68.7963791,147.325186 89.6882151,147.655327 102.777533,134.97326 C103.016164,134.742053 103.251289,134.507256 103.482828,134.268949 L155.751088,80.472792 L155.751088,80.472792 L153.145517,30.3415735 Z" id="path-97"></path>
        <circle id="path-99" cx="63" cy="63" r="63"></circle>
        <filter x="-28.2%" y="-19.4%" width="151.6%" height="151.6%" filterUnits="objectBoundingBox" id="filter-100">
            <feMorphology radius="1" operator="dilate" in="SourceAlpha" result="shadowSpreadOuter1"></feMorphology>
            <feOffset dx="-3" dy="8" in="shadowSpreadOuter1" result="shadowOffsetOuter1"></feOffset>
            <feGaussianBlur stdDeviation="8.5" in="shadowOffsetOuter1" result="shadowBlurOuter1"></feGaussianBlur>
            <feColorMatrix values="0 0 0 0 0.388235294   0 0 0 0 0.51372549   0 0 0 0 0.662745098  0 0 0 0.149120411 0" type="matrix" in="shadowBlurOuter1"></feColorMatrix>
        </filter>
        <path d="M4.38604922,0 L20.6144313,0 L20.6144313,5.59816155 L22.9905082,8.7620131 C24.2951307,10.4991756 25.0004805,12.612954 25.0004805,14.7854579 L25.0004805,36.3671842 C25.0004805,38.2137401 23.5035512,39.7106694 21.6569954,39.7106694 L3.34348517,39.7106694 C1.4969293,39.7106694 2.26137874e-16,38.2137401 0,36.3671842 L0,14.5776769 C3.28823259e-15,12.4180249 0.697039804,10.3160474 1.98746716,8.58431586 L4.38604922,5.36545961 L4.38604922,5.36545961 L4.38604922,0 Z" id="path-101"></path>
        <path d="M6.04180329,0 L28.3964755,0 L28.3964755,7.8069228 L31.6957774,12.2544543 C33.4767602,14.6552583 34.4382788,17.5652585 34.4382788,20.5545326 L34.4382788,50.734831 C34.4382788,53.2994922 32.3592101,55.3785608 29.794549,55.3785608 L4.64372981,55.3785608 C2.07906865,55.3785608 3.14080407e-16,53.2994922 0,50.734831 L0,20.2650482 C-7.46933064e-15,17.2935524 0.950129514,14.3999045 2.71160049,12.0067879 L6.04180329,7.48240803 L6.04180329,7.48240803 L6.04180329,0 Z" id="path-103"></path>
    </defs>
    <g id="Design" stroke="none" stroke-width="1" fill="none" fill-rule="evenodd">
        <g id="Physicians_V6" transform="translate(-90.000000, -534.000000)">
            <g id="HERO">
                <g id="img_physician_illustration-header" transform="translate(0.000000, 523.000000)">
                    <g id="Group-2-Copy-2">
                        <mask id="mask-2" fill="white">
                            <use xlink:href="#path-1"></use>
                        </mask>
                        <g id="Mask"></g>
                        <g id="Rack" opacity="0.300000012" mask="url(#mask-2)">
                            <g transform="translate(212.000000, 11.000000)" id="Group-3-Copy">
                                <g transform="translate(0.000000, 0.610012)">
                                    <polygon id="Rectangle-2" fill="url(#linearGradient-3)" opacity="0.3" points="210.652862 113.853458 724.934704 113.853458 724.934704 226.86144 210.652862 226.86144"></polygon>
                                    <g id="Group-10-Copy-4" transform="translate(9.000000, 0.000000)">
                                        <g id="Group-15" transform="translate(0.000000, 0.032129)">
                                            <g id="Rectangle-2-Copy-9-+-Rectangle-2-Copy-10-Mask" transform="translate(293.564906, 188.181150)">
                                                <mask id="mask-5" fill="white">
                                                    <use xlink:href="#path-4"></use>
                                                </mask>
                                                <use id="Mask" fill="#9AC6FF" opacity="0.835484601" xlink:href="#path-4"></use>
                                                <rect id="Rectangle-2-Copy-9" stroke="#5496ED" stroke-width="0.919987238" opacity="0.62352808" mask="url(#mask-5)" x="-0.354346253" y="16.7527339" width="18.6241697" height="26.7776713"></rect>
                                                <line x1="-0.814339872" y1="30.1415695" x2="19.0768757" y2="30.1415695" id="Path-57" stroke="#5496ED" stroke-width="0.919987238" mask="url(#mask-5)"></line>
                                            </g>
                                            <g id="Rectangle-4-Copy-2" transform="translate(33.627935, 217.508083)">
                                                <mask id="mask-7" fill="white">
                                                    <use xlink:href="#path-6"></use>
                                                </mask>
                                                <use id="Mask" fill="#5496ED" opacity="0.571218297" xlink:href="#path-6"></use>
                                                <rect id="Rectangle-4-Copy" fill="#5496ED" opacity="0.571218297" mask="url(#mask-7)" x="-1.62867974" y="-1.62927403" width="41.5313335" height="8.96100716"></rect>
                                            </g>
                                            <g id="Rectangle-4-Copy-6" transform="translate(76.787948, 61.912413)">
                                                <mask id="mask-9" fill="white">
                                                    <use xlink:href="#path-8"></use>
                                                </mask>
                                                <use id="Mask" fill="#689EE3" xlink:href="#path-8"></use>
                                                <polygon fill="#C5DEFF" mask="url(#mask-9)" points="-1.62867974 -1.62927403 61.8898303 -1.62927403 61.8898303 24.4416987 41.5313335 43.1757618 18.7298171 43.1757618 -1.62867974 24.4416987"></polygon>
                                            </g>
                                            <g id="Combined-Shape-Copy-24" transform="translate(220.111765, 224.025179)">
                                                <mask id="mask-11" fill="white">
                                                    <use xlink:href="#path-10"></use>
                                                </mask>
                                                <use id="Mask" fill="#DEECFF" xlink:href="#path-10"></use>
                                                <path d="M-1.62867974,8.96100716 L-1.62867974,-1.62927403 L70.8475689,-1.62927403 L70.8475689,8.96100716 L40.7169936,8.96100716 C40.7169936,12.1103884 38.1648469,14.6634663 35.0166145,14.6634663 C31.868382,14.6634663 29.3162354,12.1103884 29.3162354,8.96100716 L29.3162354,8.96100716 L-1.62867974,8.96100716 Z" id="Combined-Shape" stroke="#0448A2" stroke-width="1.4131004" fill="#FFFFFF" mask="url(#mask-11)"></path>
                                            </g>
                                            <g id="Rectangle-2-Copy-5-+-Rectangle-2-Copy-4-Mask" transform="translate(147.635517, 0.000000)">
                                                <mask id="mask-13" fill="white">
                                                    <use xlink:href="#path-12"></use>
                                                </mask>
                                                <use id="Mask" fill="#9AC6FF" opacity="0.461560236" xlink:href="#path-12"></use>
                                                <rect id="Rectangle-2-Copy-5" stroke="#5496ED" stroke-width="0.919987238" mask="url(#mask-13)" x="-1.16868612" y="51.7821256" width="35.725307" height="54.4753298"></rect>
                                                <path d="M-1.16868612,-1.16928041 L-1.16868612,106.257455 L16.6411437,106.257455 L16.6411437,-1.16928041 L-1.16868612,-1.16928041 Z" id="Rectangle-2-Copy-4" stroke="#5496ED" stroke-width="0.919987238" mask="url(#mask-13)"></path>
                                            </g>
                                            <g id="Oval-5-Copy-2" transform="translate(320.438121, 212.620261)">
                                                <mask id="mask-15" fill="white">
                                                    <use xlink:href="#path-14"></use>
                                                </mask>
                                                <use id="Mask" fill="#9AC6FF" xlink:href="#path-14"></use>
                                                <ellipse id="Oval-5" stroke="#FFFFFF" stroke-width="0.919987238" mask="url(#mask-15)" cx="-0.267459648" cy="17.5146958" rx="11.9476384" ry="11.8122367"></ellipse>
                                            </g>
                                            <g id="Oval-5-Copy" transform="translate(132.163059, 197.741949)">
                                                <mask id="mask-17" fill="white">
                                                    <use xlink:href="#path-16"></use>
                                                </mask>
                                                <use id="Mask" fill="#9AC6FF" xlink:href="#path-16"></use>
                                                <ellipse id="Oval-5" stroke="#FFFFFF" stroke-width="0.919987238" mask="url(#mask-17)" cx="23.2086864" cy="24.846429" rx="12.622268" ry="12.6268737"></ellipse>
                                            </g>
                                            <g id="Rectangle-2-Copy-6-+-Rectangle-2-Copy-7-Mask" transform="translate(189.981190, 45.619673)">
                                                <mask id="mask-19" fill="white">
                                                    <use xlink:href="#path-18"></use>
                                                </mask>
                                                <use id="Mask" fill="#5496ED" opacity="0.630887681" xlink:href="#path-18"></use>
                                                <rect id="Rectangle-2-Copy-6" stroke="#FFFFFF" stroke-width="0.919987238" mask="url(#mask-19)" x="-1.16868612" y="30.6015632" width="43.2808952" height="30.0362193"></rect>
                                                <rect id="Rectangle-2-Copy-7" stroke="#FFFFFF" stroke-width="0.919987238" fill="#93BDF4" mask="url(#mask-19)" x="16.7467911" y="24.8991041" width="8.2642807" height="12.114205"></rect>
                                            </g>
                                            <g id="Rectangle-2-Copy-2-+-Path-49-Mask-Copy" transform="translate(185.909491, 157.224944)">
                                                <mask id="mask-21" fill="white">
                                                    <use xlink:href="#path-20"></use>
                                                </mask>
                                                <use id="Mask" fill="#C4DDFF" xlink:href="#path-20"></use>
                                                <rect id="Rectangle-2-Copy-2" fill="#FFFFFF" mask="url(#mask-21)" x="3.25735949" y="35.0293916" width="14.6581177" height="15.4781033"></rect>
                                                <line x1="3.25735949" y1="55.8978079" x2="17.9154772" y2="55.8978079" id="Path-49" stroke="#FFFFFF" stroke-width="0.919987238" mask="url(#mask-21)"></line>
                                            </g>
                                            <g id="Rectangle-4-Copy-4-+-Path-50-Mask" transform="translate(17.341137, 37.473303)">
                                                <mask id="mask-23" fill="white">
                                                    <use xlink:href="#path-22"></use>
                                                </mask>
                                                <use id="Mask" fill="#FFFFFF" xlink:href="#path-22"></use>
                                                <polygon id="Rectangle-4-Copy-4" fill="#AED1FF" mask="url(#mask-23)" points="-2.44301962 13.0341922 23.6158563 13.0341922 23.6158563 70.0587833 -2.44301962 70.0587833"></polygon>
                                                <line x1="18.4354668" y1="18.9487061" x2="-1.60873135" y2="18.9487061" id="Path-50" stroke="#5496ED" stroke-width="0.919987238" mask="url(#mask-23)"></line>
                                            </g>
                                            <g id="Rectangle-4-Copy-4-+-Path-50-Mask-Copy" transform="translate(14.738311, 223.302713) scale(-1, 1) translate(-14.738311, -223.302713) translate(0.938311, 193.883610)">
                                                <g id="Path-50" transform="translate(-0.000000, 0.000000)">
                                                    <mask id="mask-25" fill="white">
                                                        <use xlink:href="#path-24"></use>
                                                    </mask>
                                                    <use id="Mask" fill="#CBE2FF" xlink:href="#path-24"></use>
                                                    <line x1="21.4892414" y1="10.2603454" x2="-2.08711233" y2="10.2603454" stroke="#5496ED" stroke-width="6.18231424" mask="url(#mask-25)"></line>
                                                </g>
                                            </g>
                                            <g id="Path-51-+-Path-51-Copy-+-Path-51-Copy-2-Mask" transform="translate(238.027243, 24.439110)">
                                                <mask id="mask-27" fill="white">
                                                    <use xlink:href="#path-26"></use>
                                                </mask>
                                                <use id="Mask" fill="#9AC6FF" xlink:href="#path-26"></use>
                                                <line x1="5.86816039" y1="8.75580737" x2="24.6148008" y2="8.75580737" id="Path-51" stroke="#5496ED" stroke-width="0.919987238" mask="url(#mask-27)"></line>
                                                <line x1="5.86816039" y1="16.9021775" x2="13.2140426" y2="16.9021775" id="Path-51-Copy" stroke="#5496ED" stroke-width="0.919987238" mask="url(#mask-27)"></line>
                                                <line x1="5.86816039" y1="25.0485477" x2="13.2140426" y2="25.0485477" id="Path-51-Copy-2" stroke="#5496ED" stroke-width="0.919987238" mask="url(#mask-27)"></line>
                                            </g>
                                            <g id="Rectangle-6-Copy-+-Path-52-Mask" transform="translate(277.929896, 18.736651)">
                                                <mask id="mask-29" fill="white">
                                                    <use xlink:href="#path-28"></use>
                                                </mask>
                                                <use id="Mask" fill="#FFFFFF" xlink:href="#path-28"></use>
                                                <path d="M-0.745491995,25.3222982 L-0.745491995,37.4047519 L56.1206033,37.4047519 L56.1206033,25.3222982 L-0.745491995,25.3222982 Z" id="Rectangle-6-Copy" stroke="#AED1FF" stroke-width="1.7663755" opacity="0.815613678" mask="url(#mask-29)"></path>
                                                <line x1="17.9154772" y1="52.951406" x2="38.1114367" y2="52.951406" id="Path-52" stroke="#AED1FF" stroke-width="1.7663755" mask="url(#mask-29)"></line>
                                            </g>
                                            <g id="Path-53" transform="translate(341.448406, 56.209954)">
                                                <mask id="mask-31" fill="white">
                                                    <use xlink:href="#path-30"></use>
                                                </mask>
                                                <use id="Mask" fill="#9AC6FF" xlink:href="#path-30"></use>
                                                <polygon stroke="#0448A2" stroke-width="0.919987238" fill="#FFFFFF" mask="url(#mask-31)" points="8.2723589 49.6593463 62.2776178 -3.50726029 -12.744415 -31.600619 -58.4719256 49.6593463"></polygon>
                                            </g>
                                            <g id="Path-54-+-Path-54-Copy-+-Path-54-Copy-3-+-Path-54-Copy-2-Mask" transform="translate(431.840132, 25.253747)">
                                                <mask id="mask-33" fill="white">
                                                    <use xlink:href="#path-32"></use>
                                                </mask>
                                                <use id="Mask" fill="#DEECFF" xlink:href="#path-32"></use>
                                                <line x1="13.1406274" y1="14.5960386" x2="13.1406274" y2="35.0655197" id="Path-54" stroke="#5496ED" stroke-width="0.919987238" mask="url(#mask-33)"></line>
                                                <line x1="19.6553463" y1="14.5960386" x2="19.6553463" y2="35.0655197" id="Path-54-Copy" stroke="#5496ED" stroke-width="0.919987238" mask="url(#mask-33)"></line>
                                                <line x1="13.1406274" y1="47.1815192" x2="13.1406274" y2="67.6510003" id="Path-54-Copy-3" stroke="#5496ED" stroke-width="0.919987238" mask="url(#mask-33)"></line>
                                                <line x1="19.6553463" y1="47.1815192" x2="19.6553463" y2="67.6510003" id="Path-54-Copy-2" stroke="#5496ED" stroke-width="0.919987238" mask="url(#mask-33)"></line>
                                            </g>
                                            <g id="Path-54-+-Path-54-Copy-+-Path-54-Copy-3-+-Path-54-Copy-2-Mask-Copy" transform="translate(480.700525, 169.444499)">
                                                <mask id="mask-35" fill="white">
                                                    <use xlink:href="#path-34"></use>
                                                </mask>
                                                <use id="Mask" fill="#FFFFFF" opacity="0.718580163" xlink:href="#path-34"></use>
                                                <line x1="19.6553463" y1="14.5960386" x2="19.6553463" y2="35.0655197" id="Path-54-Copy" stroke="#689EE3" stroke-width="2.03486457" mask="url(#mask-35)"></line>
                                            </g>
                                            <g id="Rectangle-2-Copy-8-+-Rectangle-2-Copy-3-Mask" transform="translate(82.488327, 166.185951)">
                                                <mask id="mask-37" fill="white">
                                                    <use xlink:href="#path-36"></use>
                                                </mask>
                                                <use id="Mask" fill="#FFFFFF" xlink:href="#path-36"></use>
                                                <rect id="Rectangle-2-Copy-8" stroke="#5496ED" stroke-width="1.4131004" fill="#FFFFFF" mask="url(#mask-37)" x="-0.814339872" y="64.3563242" width="43.1600132" height="18.7366513"></rect>
                                                <rect id="Rectangle-2-Copy-3" stroke="#5496ED" stroke-width="1.4131004" fill="#FFFFFF" mask="url(#mask-37)" x="-0.814339872" y="-0.814637015" width="21.9871765" height="83.9076125"></rect>
                                            </g>
                                            <g id="Path-58" opacity="0.695482337" transform="translate(412.295975, 206.917802)">
                                                <mask id="mask-39" fill="white">
                                                    <use xlink:href="#path-38"></use>
                                                </mask>
                                                <use id="Mask" fill="#9AC6FF" xlink:href="#path-38"></use>
                                                <line x1="0.08882686" y1="-0.0510918906" x2="25.4145956" y2="25.9105887" stroke="#0448A2" stroke-width="1.01743229" mask="url(#mask-39)"></line>
                                            </g>
                                            <g id="Path-59-+-Path-60-Mask" transform="translate(441.612211, 194.698247)">
                                                <mask id="mask-41" fill="white">
                                                    <use xlink:href="#path-40"></use>
                                                </mask>
                                                <use id="Mask" fill="#DEECFF" xlink:href="#path-40"></use>
                                                <line x1="4.07169936" y1="8.14637015" x2="24.4697838" y2="8.14637015" id="Path-59" stroke="#0448A2" stroke-width="1.01743229" mask="url(#mask-41)"></line>
                                                <line x1="14.6581177" y1="8.14637015" x2="14.6581177" y2="54.9078807" id="Path-60" stroke="#0448A2" stroke-width="1.01743229" mask="url(#mask-41)"></line>
                                            </g>
                                            <g id="Path-59-+-Path-60-Mask-Copy-2" transform="translate(474.185806, 52.736561)">
                                                <mask id="mask-43" fill="white">
                                                    <use xlink:href="#path-42"></use>
                                                </mask>
                                                <use id="Mask" fill="#9AC6FF" xlink:href="#path-42"></use>
                                                <line x1="4.07169936" y1="8.14637015" x2="24.4697838" y2="8.14637015" id="Path-59" stroke="#5496ED" stroke-width="0.919987238" mask="url(#mask-43)"></line>
                                                <line x1="14.6581177" y1="8.14637015" x2="14.6581177" y2="54.9078807" id="Path-60" stroke="#5496ED" stroke-width="0.919987238" mask="url(#mask-43)"></line>
                                            </g>
                                        </g>
                                    </g>
                                    <g id="Group-10-Copy-5" transform="translate(469.000000, 0.000000)">
                                        <g id="Group-15" transform="translate(0.000000, 0.032129)">
                                            <g id="Rectangle-2-Copy-9-+-Rectangle-2-Copy-10-Mask" transform="translate(293.564906, 188.181150)">
                                                <mask id="mask-45" fill="white">
                                                    <use xlink:href="#path-44"></use>
                                                </mask>
                                                <use id="Mask" fill="#9AC6FF" opacity="0.835484601" xlink:href="#path-44"></use>
                                                <rect id="Rectangle-2-Copy-9" stroke="#5496ED" stroke-width="0.919987238" opacity="0.62352808" mask="url(#mask-45)" x="-0.354346253" y="16.7527339" width="18.6241697" height="26.7776713"></rect>
                                                <line x1="-0.814339872" y1="30.1415695" x2="19.0768757" y2="30.1415695" id="Path-57" stroke="#5496ED" stroke-width="0.919987238" mask="url(#mask-45)"></line>
                                            </g>
                                            <g id="Rectangle-4-Copy-2" transform="translate(33.627935, 217.508083)">
                                                <mask id="mask-47" fill="white">
                                                    <use xlink:href="#path-46"></use>
                                                </mask>
                                                <use id="Mask" fill="#5496ED" opacity="0.571218297" xlink:href="#path-46"></use>
                                                <rect id="Rectangle-4-Copy" fill="#5496ED" opacity="0.571218297" mask="url(#mask-47)" x="-1.62867974" y="-1.62927403" width="41.5313335" height="8.96100716"></rect>
                                            </g>
                                            <g id="Rectangle-4-Copy-6" transform="translate(76.787948, 61.912413)">
                                                <mask id="mask-49" fill="white">
                                                    <use xlink:href="#path-48"></use>
                                                </mask>
                                                <use id="Mask" fill="#689EE3" xlink:href="#path-48"></use>
                                                <polygon fill="#C5DEFF" mask="url(#mask-49)" points="-1.62867974 -1.62927403 61.8898303 -1.62927403 61.8898303 24.4416987 41.5313335 43.1757618 18.7298171 43.1757618 -1.62867974 24.4416987"></polygon>
                                            </g>
                                            <g id="Combined-Shape-Copy-24" transform="translate(220.111765, 224.025179)">
                                                <mask id="mask-51" fill="white">
                                                    <use xlink:href="#path-50"></use>
                                                </mask>
                                                <use id="Mask" fill="#DEECFF" xlink:href="#path-50"></use>
                                                <path d="M-1.62867974,8.96100716 L-1.62867974,-1.62927403 L70.8475689,-1.62927403 L70.8475689,8.96100716 L40.7169936,8.96100716 C40.7169936,12.1103884 38.1648469,14.6634663 35.0166145,14.6634663 C31.868382,14.6634663 29.3162354,12.1103884 29.3162354,8.96100716 L29.3162354,8.96100716 L-1.62867974,8.96100716 Z" id="Combined-Shape" stroke="#0448A2" stroke-width="1.4131004" fill="#FFFFFF" mask="url(#mask-51)"></path>
                                            </g>
                                            <g id="Rectangle-2-Copy-5-+-Rectangle-2-Copy-4-Mask" transform="translate(147.635517, 0.000000)">
                                                <mask id="mask-53" fill="white">
                                                    <use xlink:href="#path-52"></use>
                                                </mask>
                                                <use id="Mask" fill="#9AC6FF" opacity="0.461560236" xlink:href="#path-52"></use>
                                                <rect id="Rectangle-2-Copy-5" stroke="#5496ED" stroke-width="0.919987238" mask="url(#mask-53)" x="-1.16868612" y="51.7821256" width="35.725307" height="54.4753298"></rect>
                                                <path d="M-1.16868612,-1.16928041 L-1.16868612,106.257455 L16.6411437,106.257455 L16.6411437,-1.16928041 L-1.16868612,-1.16928041 Z" id="Rectangle-2-Copy-4" stroke="#5496ED" stroke-width="0.919987238" mask="url(#mask-53)"></path>
                                            </g>
                                            <g id="Oval-5-Copy-2" transform="translate(320.438121, 212.620261)">
                                                <mask id="mask-55" fill="white">
                                                    <use xlink:href="#path-54"></use>
                                                </mask>
                                                <use id="Mask" fill="#9AC6FF" xlink:href="#path-54"></use>
                                                <ellipse id="Oval-5" stroke="#FFFFFF" stroke-width="0.919987238" mask="url(#mask-55)" cx="-0.267459648" cy="17.5146958" rx="11.9476384" ry="11.8122367"></ellipse>
                                            </g>
                                            <g id="Oval-5-Copy" transform="translate(132.163059, 197.741949)">
                                                <mask id="mask-57" fill="white">
                                                    <use xlink:href="#path-56"></use>
                                                </mask>
                                                <use id="Mask" fill="#9AC6FF" xlink:href="#path-56"></use>
                                                <ellipse id="Oval-5" stroke="#FFFFFF" stroke-width="0.919987238" mask="url(#mask-57)" cx="23.2086864" cy="24.846429" rx="12.622268" ry="12.6268737"></ellipse>
                                            </g>
                                            <g id="Rectangle-2-Copy-6-+-Rectangle-2-Copy-7-Mask" transform="translate(189.981190, 45.619673)">
                                                <mask id="mask-59" fill="white">
                                                    <use xlink:href="#path-58"></use>
                                                </mask>
                                                <use id="Mask" fill="#5496ED" opacity="0.630887681" xlink:href="#path-58"></use>
                                                <rect id="Rectangle-2-Copy-6" stroke="#FFFFFF" stroke-width="0.919987238" mask="url(#mask-59)" x="-1.16868612" y="30.6015632" width="43.2808952" height="30.0362193"></rect>
                                                <rect id="Rectangle-2-Copy-7" stroke="#FFFFFF" stroke-width="0.919987238" fill="#93BDF4" mask="url(#mask-59)" x="16.7467911" y="24.8991041" width="8.2642807" height="12.114205"></rect>
                                            </g>
                                            <g id="Rectangle-2-Copy-2-+-Path-49-Mask-Copy" transform="translate(185.909491, 157.224944)">
                                                <mask id="mask-61" fill="white">
                                                    <use xlink:href="#path-60"></use>
                                                </mask>
                                                <use id="Mask" fill="#C4DDFF" xlink:href="#path-60"></use>
                                                <rect id="Rectangle-2-Copy-2" fill="#FFFFFF" mask="url(#mask-61)" x="3.25735949" y="35.0293916" width="14.6581177" height="15.4781033"></rect>
                                                <line x1="3.25735949" y1="55.8978079" x2="17.9154772" y2="55.8978079" id="Path-49" stroke="#FFFFFF" stroke-width="0.919987238" mask="url(#mask-61)"></line>
                                            </g>
                                            <g id="Rectangle-4-Copy-4-+-Path-50-Mask" transform="translate(17.341137, 37.473303)">
                                                <mask id="mask-63" fill="white">
                                                    <use xlink:href="#path-62"></use>
                                                </mask>
                                                <use id="Mask" fill="#FFFFFF" xlink:href="#path-62"></use>
                                                <polygon id="Rectangle-4-Copy-4" fill="#AED1FF" mask="url(#mask-63)" points="-2.44301962 13.0341922 23.6158563 13.0341922 23.6158563 70.0587833 -2.44301962 70.0587833"></polygon>
                                                <line x1="18.4354668" y1="18.9487061" x2="-1.60873135" y2="18.9487061" id="Path-50" stroke="#5496ED" stroke-width="0.919987238" mask="url(#mask-63)"></line>
                                            </g>
                                            <g id="Rectangle-4-Copy-4-+-Path-50-Mask-Copy" transform="translate(14.738311, 223.302713) scale(-1, 1) translate(-14.738311, -223.302713) translate(0.938311, 193.883610)">
                                                <g id="Path-50" transform="translate(-0.000000, 0.000000)">
                                                    <mask id="mask-65" fill="white">
                                                        <use xlink:href="#path-64"></use>
                                                    </mask>
                                                    <use id="Mask" fill="#CBE2FF" xlink:href="#path-64"></use>
                                                    <line x1="21.4892414" y1="10.2603454" x2="-2.08711233" y2="10.2603454" stroke="#5496ED" stroke-width="6.18231424" mask="url(#mask-65)"></line>
                                                </g>
                                            </g>
                                            <g id="Path-51-+-Path-51-Copy-+-Path-51-Copy-2-Mask" transform="translate(238.027243, 24.439110)">
                                                <mask id="mask-67" fill="white">
                                                    <use xlink:href="#path-66"></use>
                                                </mask>
                                                <use id="Mask" fill="#9AC6FF" xlink:href="#path-66"></use>
                                                <line x1="5.86816039" y1="8.75580737" x2="24.6148008" y2="8.75580737" id="Path-51" stroke="#5496ED" stroke-width="0.919987238" mask="url(#mask-67)"></line>
                                                <line x1="5.86816039" y1="16.9021775" x2="13.2140426" y2="16.9021775" id="Path-51-Copy" stroke="#5496ED" stroke-width="0.919987238" mask="url(#mask-67)"></line>
                                                <line x1="5.86816039" y1="25.0485477" x2="13.2140426" y2="25.0485477" id="Path-51-Copy-2" stroke="#5496ED" stroke-width="0.919987238" mask="url(#mask-67)"></line>
                                            </g>
                                            <g id="Rectangle-6-Copy-+-Path-52-Mask" transform="translate(277.929896, 18.736651)">
                                                <mask id="mask-69" fill="white">
                                                    <use xlink:href="#path-68"></use>
                                                </mask>
                                                <use id="Mask" fill="#FFFFFF" xlink:href="#path-68"></use>
                                                <path d="M-0.745491995,25.3222982 L-0.745491995,37.4047519 L56.1206033,37.4047519 L56.1206033,25.3222982 L-0.745491995,25.3222982 Z" id="Rectangle-6-Copy" stroke="#AED1FF" stroke-width="1.7663755" opacity="0.815613678" mask="url(#mask-69)"></path>
                                                <line x1="17.9154772" y1="52.951406" x2="38.1114367" y2="52.951406" id="Path-52" stroke="#AED1FF" stroke-width="1.7663755" mask="url(#mask-69)"></line>
                                            </g>
                                            <g id="Path-53" transform="translate(341.448406, 56.209954)">
                                                <mask id="mask-71" fill="white">
                                                    <use xlink:href="#path-70"></use>
                                                </mask>
                                                <use id="Mask" fill="#9AC6FF" xlink:href="#path-70"></use>
                                                <polygon stroke="#0448A2" stroke-width="0.919987238" fill="#FFFFFF" mask="url(#mask-71)" points="8.2723589 49.6593463 62.2776178 -3.50726029 -12.744415 -31.600619 -58.4719256 49.6593463"></polygon>
                                            </g>
                                            <g id="Path-54-+-Path-54-Copy-+-Path-54-Copy-3-+-Path-54-Copy-2-Mask" transform="translate(431.840132, 25.253747)">
                                                <mask id="mask-73" fill="white">
                                                    <use xlink:href="#path-72"></use>
                                                </mask>
                                                <use id="Mask" fill="#DEECFF" xlink:href="#path-72"></use>
                                                <line x1="13.1406274" y1="14.5960386" x2="13.1406274" y2="35.0655197" id="Path-54" stroke="#5496ED" stroke-width="0.919987238" mask="url(#mask-73)"></line>
                                                <line x1="19.6553463" y1="14.5960386" x2="19.6553463" y2="35.0655197" id="Path-54-Copy" stroke="#5496ED" stroke-width="0.919987238" mask="url(#mask-73)"></line>
                                                <line x1="13.1406274" y1="47.1815192" x2="13.1406274" y2="67.6510003" id="Path-54-Copy-3" stroke="#5496ED" stroke-width="0.919987238" mask="url(#mask-73)"></line>
                                                <line x1="19.6553463" y1="47.1815192" x2="19.6553463" y2="67.6510003" id="Path-54-Copy-2" stroke="#5496ED" stroke-width="0.919987238" mask="url(#mask-73)"></line>
                                            </g>
                                            <g id="Path-54-+-Path-54-Copy-+-Path-54-Copy-3-+-Path-54-Copy-2-Mask-Copy" transform="translate(480.700525, 169.444499)">
                                                <mask id="mask-75" fill="white">
                                                    <use xlink:href="#path-74"></use>
                                                </mask>
                                                <use id="Mask" fill="#FFFFFF" xlink:href="#path-74"></use>
                                                <line x1="19.6553463" y1="14.5960386" x2="19.6553463" y2="35.0655197" id="Path-54-Copy" stroke="#689EE3" stroke-width="2.03486457" mask="url(#mask-75)"></line>
                                            </g>
                                            <g id="Rectangle-2-Copy-8-+-Rectangle-2-Copy-3-Mask" transform="translate(82.488327, 166.185951)">
                                                <mask id="mask-77" fill="white">
                                                    <use xlink:href="#path-76"></use>
                                                </mask>
                                                <use id="Mask" fill="#FFFFFF" xlink:href="#path-76"></use>
                                                <rect id="Rectangle-2-Copy-8" stroke="#5496ED" stroke-width="1.4131004" fill="#FFFFFF" mask="url(#mask-77)" x="-0.814339872" y="64.3563242" width="43.1600132" height="18.7366513"></rect>
                                                <rect id="Rectangle-2-Copy-3" stroke="#5496ED" stroke-width="1.4131004" fill="#FFFFFF" mask="url(#mask-77)" x="-0.814339872" y="-0.814637015" width="21.9871765" height="83.9076125"></rect>
                                            </g>
                                            <g id="Path-58" opacity="0.695482337" transform="translate(412.295975, 206.917802)">
                                                <mask id="mask-79" fill="white">
                                                    <use xlink:href="#path-78"></use>
                                                </mask>
                                                <use id="Mask" fill="#9AC6FF" xlink:href="#path-78"></use>
                                                <line x1="0.08882686" y1="-0.0510918906" x2="25.4145956" y2="25.9105887" stroke="#0448A2" stroke-width="1.01743229" mask="url(#mask-79)"></line>
                                            </g>
                                            <g id="Path-59-+-Path-60-Mask" transform="translate(441.612211, 194.698247)">
                                                <mask id="mask-81" fill="white">
                                                    <use xlink:href="#path-80"></use>
                                                </mask>
                                                <use id="Mask" fill="#DEECFF" xlink:href="#path-80"></use>
                                                <line x1="4.07169936" y1="8.14637015" x2="24.4697838" y2="8.14637015" id="Path-59" stroke="#0448A2" stroke-width="1.01743229" mask="url(#mask-81)"></line>
                                                <line x1="14.6581177" y1="8.14637015" x2="14.6581177" y2="54.9078807" id="Path-60" stroke="#0448A2" stroke-width="1.01743229" mask="url(#mask-81)"></line>
                                            </g>
                                            <g id="Path-59-+-Path-60-Mask-Copy-2" transform="translate(474.185806, 52.736561)">
                                                <mask id="mask-83" fill="white">
                                                    <use xlink:href="#path-82"></use>
                                                </mask>
                                                <use id="Mask" fill="#9AC6FF" xlink:href="#path-82"></use>
                                                <line x1="4.07169936" y1="8.14637015" x2="24.4697838" y2="8.14637015" id="Path-59" stroke="#5496ED" stroke-width="0.919987238" mask="url(#mask-83)"></line>
                                                <line x1="14.6581177" y1="8.14637015" x2="14.6581177" y2="54.9078807" id="Path-60" stroke="#5496ED" stroke-width="0.919987238" mask="url(#mask-83)"></line>
                                            </g>
                                        </g>
                                    </g>
                                    <polygon id="Rectangle-2-Copy-11" stroke="#6895D2" stroke-width="1.7663755" fill="#EAF4FD" points="0.65286226 106.791069 1014.9347 106.791069 1014.9347 113.863213 0.65286226 113.863213"></polygon>
                                    <polygon id="Rectangle-2-Copy-10" stroke="#6895D2" stroke-width="1.7663755" fill="#EAF4FD" points="0.65286226 249.648375 1014.9347 249.648375 1014.9347 256.720519 0.65286226 256.720519"></polygon>
                                </g>
                            </g>
                        </g>
                        <g id="Group-16" mask="url(#mask-2)">
                            <g transform="translate(396.000000, 46.000000)">
                                <g id="Group-14" stroke="none" stroke-width="1" fill="none" fill-rule="evenodd" transform="translate(135.495909, 149.011849)">
                                    <path d="M55.1843376,63.8846104 L25.4981045,63.8846104 L0.00409078999,69.138375 L9.47509415,93.1212589 L30.4789333,93.1212589 C40.5428143,93.1212589 50.4247629,90.4383548 59.1068804,85.3489013 L59.1068804,85.3489013 L59.1068804,85.3489013" id="Path-160" fill="#F9946B"></path>
                                    <path d="M335.504091,0 L204.845434,51.6236792 L54.2135817,61.5917966 L54,99.8797363 L200.705908,99.3169133 C207.115266,99.2923244 213.507415,98.6515932 219.794139,97.4035624 L298.569235,81.7652488 L298.569235,81.7652488 L335.504091,0 Z" id="Path-136" fill="#FFFFFF"></path>
                                    <path d="M335.504091,0 C312.513536,22.9261832 295.61442,41.0793841 284.80674,54.4596028 C273.999061,67.8398215 267.030211,79.2358523 263.90019,88.6476954 L298.569235,81.7652488 L335.504091,0 Z" id="Path-136-Copy" fill="#E5EFFC"></path>
                                    <ellipse id="Oval" fill="#086475" cx="65.5992399" cy="91.0833617" rx="2.09514906" ry="2.09521065"></ellipse>
                                    <ellipse id="Oval-Copy-14" fill="#086475" cx="75.5992399" cy="91.0833617" rx="2.09514906" ry="2.09521065"></ellipse>
                                    <ellipse id="Oval-Copy-15" fill="#086475" cx="85.5992399" cy="91.0833617" rx="2.09514906" ry="2.09521065"></ellipse>
                                    <path d="M53.5040908,99.8797363 L206.215733,99.2924196 C208.373306,99.2841218 210.525191,99.0704693 212.642273,98.6543528 L298.569235,81.7652488 L298.569235,81.7652488 L306.96823,43.9881511" id="Path-159" stroke="#1A5986" stroke-linejoin="round"></path>
                                </g>
                                <g id="Path-13" stroke="none" stroke-width="1" fill="none" fill-rule="evenodd" transform="translate(103.000000, 185.231824)">
                                    <mask id="mask-85" fill="white">
                                        <use xlink:href="#path-84"></use>
                                    </mask>
                                    <use id="Mask" fill="#2A837B" xlink:href="#path-84"></use>
                                    <polygon fill="#28938A" mask="url(#mask-85)" points="54.3294843 34.2113509 60.3055734 24.9035075 55 21.5289968 47.2235066 24.9035075"></polygon>
                                </g>
                                <g id="Group-2-Copy-2" stroke="none" stroke-width="1" fill="none" fill-rule="evenodd" transform="translate(309.000000, 0.000000)">
                                    <circle id="Oval-Copy-10" fill="#FFFFFF" cx="2" cy="228" r="2"></circle>
                                    <path d="M114.078268,87.1471509 C114.078268,87.1471509 99.1165392,90.7743904 100.03175,77.371019 C77.8908609,61.3043491 86.7513507,37.6308716 108.197786,37.6308716 C129.64422,37.6308716 141.531834,-1.18549799 183.51715,37.6308716 C225.502465,76.4472412 265.04737,101.286639 266.117713,140.008768 C267.188056,178.730896 249.128891,233.745109 189.63361,214.36301 C130.13833,194.980911 163.313236,150.093967 142.081274,113.838815 C120.849311,77.5836641 114.078268,87.1471509 114.078268,87.1471509 Z" id="Path-22" fill="#142832" transform="translate(176.662153, 119.379152) rotate(15.000000) translate(-176.662153, -119.379152) "></path>
                                    <g id="Path-100" transform="translate(107.000000, 128.000000)">
                                        <mask id="mask-87" fill="white">
                                            <use xlink:href="#path-86"></use>
                                        </mask>
                                        <use id="Mask" fill="#37AFA4" xlink:href="#path-86"></use>
                                        <path d="M28.0560426,165.547262 C40.2022146,178.783545 52.9681452,182.186126 66.3538345,175.755004 C79.7395237,169.323883 77.7525488,163.856789 60.3929098,159.353723 L25.9667334,156.559056 L28.0560426,165.547262 Z" id="Path-103" fill="#37948C" mask="url(#mask-87)"></path>
                                        <path d="M109.508029,-4.18808565 L82.3456738,34.4371642 C72.5894791,48.31061 67.3538345,64.8575493 67.3538345,81.8179688 L67.3538345,328.764723 L67.3538345,328.764723 L178.518239,327.615252 L206.054927,-4.18808565 L109.508029,-4.18808565 Z" fill="#FFFFFF" mask="url(#mask-87)"></path>
                                        <polygon id="Path-102" fill="#E5EFFC" mask="url(#mask-87)" points="136.704381 44.5257505 67.3538345 170.382362 67.3538345 190.369538 67.3538345 323.615252 86.1211136 324.764723 81.3535785 175.069033"></polygon>
                                        <path d="M43.3961784,51.4453264 C59.1631204,58.1597046 75.0914501,58.1597046 91.1811676,51.4453264 C107.270885,44.7309482 107.965721,31.5955779 93.2656745,12.0392156 L66.3538345,16.4359336 L43.3961784,51.4453264 Z" id="Path-5" fill="#F9946B" mask="url(#mask-87)"></path>
                                        <ellipse id="Oval" fill="#086475" mask="url(#mask-87)" cx="75.2716846" cy="205.216197" rx="4.18176026" ry="4.18808565"></ellipse>
                                        <ellipse id="Oval-Copy" fill="#086475" mask="url(#mask-87)" cx="75.2716846" cy="230.344711" rx="4.18176026" ry="4.18808565"></ellipse>
                                        <path d="M-5.05705733,337.081505 L-5.05705733,19.1704898 L83.46114,0.571263235 L66.036575,17.9251199 C42.1604334,41.7043729 28.7387818,74.0141683 28.7387818,107.711691 L28.7387818,337.081505 L28.7387818,337.081505 L-5.05705733,337.081505 Z" id="Path-91" fill="#FFFFFF" mask="url(#mask-87)"></path>
                                        <path d="M106.143972,0.571263235 L104.623661,43.2733919 C104.444588,48.3031411 100.900348,52.5814019 95.9917113,53.6930372 L78.8584403,57.5731272 L78.8584403,57.5731272 L106.143972,73.6720938 L66.3538345,164.382362 C62.068919,109.988281 65.0739257,70.4354771 75.3688546,45.7239501 C78.507526,39.3719025 80.9971194,34.768134 82.8376348,31.9126445 C87.2017321,25.1419138 94.9705113,14.6947867 106.143972,0.571263235 Z" id="Path" fill="#FFFFFF" mask="url(#mask-87)"></path>
                                        <path d="M106.143972,0.571263235 L104.721293,40.531128 C104.484684,47.1769583 99.8049809,52.8294643 93.3244859,54.297071 L78.8584403,57.5731272 L106.143972,73.6720938 L66.3538345,164.382362" id="Path" stroke="#1A5986" stroke-linejoin="round" mask="url(#mask-87)"></path>
                                        <path d="M70.1702137,13.8763898 L33.4693283,43.3617617 C32.1053533,44.4575748 31.8879652,46.451627 32.9837782,47.815602 C33.1385581,48.0082588 33.3153494,48.182143 33.5105458,48.3337076 L42.5347746,55.3407688 L42.5347746,55.3407688 L25.2866417,67.0419657 C22.8892579,68.6683597 21.5711527,71.4739201 21.8496653,74.3575006 L30.3425233,162.288319 L30.3425233,162.288319 L30.3425233,102.376134 C34.8123496,80.9060029 39.2719447,65.2275477 43.7213087,55.3407688 C48.1706726,45.4539898 56.9869743,31.6325301 70.1702137,13.8763898 Z" id="Path-2" fill="#FFFFFF" mask="url(#mask-87)"></path>
                                        <path d="M70.1702137,13.8763898 L34.4748606,42.5539204 C32.6738051,44.0008825 32.3857451,46.63518 33.8314606,48.4377885 C34.036397,48.693316 34.2706055,48.9238727 34.5292747,49.1247221 L42.5347746,55.3407688 L26.5352595,66.1948988 C23.3683558,68.3433379 21.6269446,72.0515614 21.9950694,75.8629421 L30.3425233,162.288319" id="Path" stroke="#1A5986" stroke-linejoin="round" mask="url(#mask-87)"></path>
                                        <polygon id="Path-4" fill="#DCEAFB" mask="url(#mask-87)" points="2.31230197 136.037938 28.753542 166.108322 28.8520935 156.1731"></polygon>
                                    </g>
                                    <g id="Group-13" transform="translate(164.437016, 95.822663) rotate(27.000000) translate(-164.437016, -95.822663) translate(101.437016, 52.822663)">
                                        <g id="Path-20" transform="translate(-0.000000, 1.000000)">
                                            <mask id="mask-89" fill="white">
                                                <use xlink:href="#path-88"></use>
                                            </mask>
                                            <use id="Mask" fill="#F9946B" transform="translate(62.582277, 42.595199) rotate(6.000000) translate(-62.582277, -42.595199) " xlink:href="#path-88"></use>
                                            <path d="M72.4241681,54.6388648 L83.7614651,43.2648784 C92.2512632,56.9950658 93.8214962,67.0502358 88.4721642,73.4303883 L72.4241681,54.6388648 Z" fill="#ED7763" mask="url(#mask-89)"></path>
                                        </g>
                                        <path d="M30,25 L47.5489762,10.614772 C54.5541777,4.87247582 63.0214223,1.19664319 72,1.8189894e-12 L72,1.8189894e-12 L72,1.8189894e-12" id="Path-104" stroke="#000000" stroke-width="1.58400016" stroke-linecap="round"></path>
                                        <line x1="15.140049" y1="36.795081" x2="15.859951" y2="36.204919" id="Path-104-Copy" stroke="#000000" stroke-width="1.58400016" stroke-linecap="round"></line>
                                        <ellipse id="Oval" stroke="#000000" stroke-width="1.58400016" stroke-linecap="round" transform="translate(25.878845, 34.695199) rotate(-36.000000) translate(-25.878845, -34.695199) " cx="25.8788452" cy="34.6951995" rx="8.96343591" ry="10.8416989"></ellipse>
                                        <ellipse id="Oval-Copy-30" stroke="#000000" stroke-width="1.58400016" stroke-linecap="round" transform="translate(16.154432, 43.513601) rotate(-36.000000) translate(-16.154432, -43.513601) " cx="16.1544325" cy="43.5136008" rx="2.48361961" ry="9.51954025"></ellipse>
                                    </g>
                                    <path d="M235.349678,300.313484 C232.438854,306.378778 231.903847,313.313975 233.849968,319.753952 L274.107926,452.972975 L107,452.972975 L110.97556,235.292938 C111.191363,223.476764 113.899521,211.839288 118.922859,201.141876 L123.980443,190.371533" id="Path" stroke="#1A5986" stroke-linejoin="round"></path>
                                    <g id="Group-11" transform="translate(173.516928, 261.016905) rotate(-34.000000) translate(-173.516928, -261.016905) translate(36.016928, 169.516905)">
                                        <g id="Path-67-+-Path-67-Copy-+-Path-67-Copy-2-+-Path-70-Mask">
                                            <mask id="mask-91" fill="white">
                                                <use xlink:href="#path-90"></use>
                                            </mask>
                                            <use id="Mask" fill="#F9946B" xlink:href="#path-90"></use>
                                            <line x1="6.65980555" y1="19.1552562" x2="14.5243863" y2="22.0170179" id="Path-67" stroke="#CC5829" stroke-linecap="round" mask="url(#mask-91)"></line>
                                            <line x1="3.48533734" y1="28.6727566" x2="11.3499181" y2="31.5345183" id="Path-67-Copy" stroke="#CC5829" stroke-linecap="round" mask="url(#mask-91)"></line>
                                            <line x1="3.48533734" y1="39.776507" x2="11.3499181" y2="42.6382687" id="Path-67-Copy-2" stroke="#CC5829" stroke-linecap="round" mask="url(#mask-91)"></line>
                                            <path d="M65.3969635,45.7490854 C48.0674618,53.7556857 33.6162282,56.9755285 22.0432629,55.408614 L51.0703685,65.1970501 L65.3969635,45.7490854 Z" id="Path-70" fill="#ED7763" mask="url(#mask-91)"></path>
                                        </g>
                                        <polygon id="Path-95" fill="#2FAFA4" points="73.429756 52.7379319 65.3969635 45.7490854 50.3313492 64.0719236 58.2718435 71.2169381"></polygon>
                                        <path d="M272.81414,93.8543555 L180.665001,169.027051 C170.980855,176.927107 156.983414,176.588307 147.692816,168.228978 L49.6775889,80.0385759 L49.6775889,80.0385759 L77.0132049,48.5835067 L159.636234,118.330979 L248.644838,41.2940878 L272.81414,93.8543555 Z" id="Path-93" fill="#FFFFFF"></path>
                                        <path d="M274.171389,94.9209222 L186.103593,164.590399 C173.291571,175.04209 162.198502,180.398602 142.475874,163.53497 L49.6775889,80.0385759 L77.0132049,48.5835067" id="Path" stroke="#1A5986" stroke-linejoin="round"></path>
                                        <ellipse id="Oval" fill="#086475" cx="61.217279" cy="80.654991" rx="2.09514906" ry="2.09521065"></ellipse>
                                        <ellipse id="Oval-Copy-16" fill="#086475" cx="68.3892689" cy="87.9049952" rx="2.09514906" ry="2.09521065"></ellipse>
                                        <ellipse id="Oval-Copy-19" fill="#086475" cx="75.5612588" cy="95.1549993" rx="2.09514906" ry="2.09521065"></ellipse>
                                    </g>
                                    <g id="Group-7" transform="translate(108.841128, 123.524876)">
                                        <path d="M65.1024069,12.3640619 C53.0379972,24.8682574 42.4817915,41.6592675 35.4889351,60.2521772 L39.2328919,61.660292 C46.0399659,43.5613485 54.7062766,29.0935662 66.3776607,16.9967232 L65.1024069,12.3640619 Z" id="Path" fill="#0087FF"></path>
                                        <path d="M15.184897,72.7692896 L7.86653882,103.466504 C7.0923813,106.713746 7.29140491,110.117049 8.43878548,113.25192 L13.3862189,126.76929 L13.3862189,126.76929" id="Path-101" stroke="#B9CFFA" stroke-width="2" transform="translate(10.932227, 99.769290) rotate(14.000000) translate(-10.932227, -99.769290) "></path>
                                        <path d="M43.1133167,85.1577 L44.0076146,112.965706 C44.1425409,117.16121 42.7204619,121.25829 40.0152229,124.467985 L34.3769059,131.1577 L34.3769059,131.1577" id="Path-101-Copy" stroke="#B9CFFA" stroke-width="2"></path>
                                        <path d="M20.0483989,80.6159935 L30.357377,63.4600016 C31.6301082,61.3419484 34.1858185,60.3683708 36.5451825,61.1028062 C39.0219453,61.8737862 40.7292714,64.1408556 40.7861884,66.7342172 L41.2003438,85.6047388 L45.1993807,85.5169711 L44.7852254,66.6464495 C44.6905941,62.3346815 41.8519641,58.5654125 37.7340554,57.2835679 C33.6140778,56.0010793 29.1512357,57.7011636 26.9287624,61.3997586 L16.6197843,78.5557504 L20.0483989,80.6159935 Z" id="Path-98" fill="#0087FF"></path>
                                        <circle id="Oval-Copy-5" stroke="#1A5986" stroke-linejoin="round" cx="107.158872" cy="113.475124" r="10"></circle>
                                        <path d="M101.960677,0.0498106748 L103.921653,4.27646431 C113.730883,6.74833464 118.803662,18.0173989 119.041956,38.7582641 C119.296934,60.9511941 114.597299,83.3857401 104.931097,106.075346 L108.611069,107.643084 C118.489024,84.4564285 123.303216,61.4750229 123.041692,38.7123106 C122.773677,15.3845633 116.273413,2.25221889 103.201734,0.0498106748 C102.621095,-0.0166035583 102.207409,-0.0166035583 101.960677,0.0498106748 Z" id="Path-99" fill="#0087FF"></path>
                                        <circle id="Oval" fill="#CFD9F6" cx="104.158872" cy="113.475124" r="10"></circle>
                                        <circle id="Oval-Copy-6" stroke="#1A5986" stroke-linejoin="round" cx="104.158872" cy="113.475124" r="7"></circle>
                                        <path d="M34.2437444,130.70548 L34.8135848,131.196815 C35.1319576,131.471327 35.2446562,131.915644 35.0956114,132.308713 L34.2421578,134.559489 C34.0463456,135.075896 33.468978,135.335789 32.9525712,135.139977 C32.8323499,135.094391 32.7220476,135.026049 32.6277059,134.938694 L30.8799049,133.320331 C30.4746634,132.945101 30.4503345,132.312404 30.8255648,131.907162 C30.8978594,131.829085 30.9821521,131.763047 31.0752624,131.71154 L33.1066765,130.587792 C33.4729722,130.385163 33.9267135,130.432126 34.2437444,130.70548 Z" id="Path-117" fill="#086475"></path>
                                        <path d="M8.68442954,125.859155 L9.25427001,126.35049 C9.5726428,126.625001 9.68534131,127.069318 9.53629654,127.462388 L8.68284294,129.713163 C8.48703078,130.22957 7.90966319,130.489464 7.39325633,130.293652 C7.27303503,130.248066 7.16273271,130.179724 7.06839109,130.092369 L5.32059009,128.474006 C4.91534858,128.098776 4.89101967,127.466078 5.26624995,127.060837 C5.33854458,126.98276 5.42283731,126.916722 5.51594752,126.865215 L7.54736166,125.741467 C7.91365738,125.538837 8.36739867,125.5858 8.68442954,125.859155 Z" id="Path-117-Copy" fill="#086475" transform="translate(7.300653, 127.987688) rotate(-57.000000) translate(-7.300653, -127.987688) "></path>
                                    </g>
                                    <path d="M160,184 C162.666667,187.191084 164,193.191084 164,202" id="Path-27" stroke="#1A5986" stroke-linejoin="round" transform="translate(162.000000, 193.000000) scale(-1, 1) translate(-162.000000, -193.000000) "></path>
                                </g>
                                <path d="M118.37904,191 L104.177262,185.07612 C98.0114977,182.504241 93.649501,176.883134 92.6891144,170.271866 L86.4201647,127.11663 C85.5904809,121.405115 88.8407425,115.884114 94.2373643,113.83808 L94.2373643,113.83808 L94.2373643,113.83808 C95.5517342,104.392492 101.364648,99.0366925 111.676107,97.7706815 C127.143294,95.8716649 171.771484,90.3723516 167.74418,117.340264 C165.059311,135.318873 155.085208,159.345172 137.82187,189.419161 L118.37904,191 Z" id="Path-7" stroke="none" fill="#142832" fill-rule="evenodd"></path>
                                <g id="Path-9" stroke="none" stroke-width="1" fill="none" fill-rule="evenodd" transform="translate(116.000000, 107.000000)">
                                    <mask id="mask-93" fill="white">
                                        <use xlink:href="#path-92"></use>
                                    </mask>
                                    <use id="Mask" fill="#F9946B" xlink:href="#path-92"></use>
                                    <path d="M60.3364984,90.1274868 C51.8953087,93.9077977 45.7831425,95.7979532 42,95.7979532 C29.1847567,95.7979532 10.5887554,86.6657641 12.8398276,73.3802424 C8.46071698,68.1376552 5.63267722,65.7911326 4.35570832,66.3406747 C1.17027884,67.7115205 -2.69527899,72.9386249 -7.24096515,82.0219878 L34.2730134,112.443174 C43.6850964,107.267027 50.3125377,103.033841 54.1553372,99.7436162 C57.9981368,96.4533917 60.0585239,93.2480153 60.3364984,90.1274868 Z" id="Path-6" fill="#ED7763" mask="url(#mask-93)"></path>
                                    <path d="M7.14808332,66.3406747 C9.00358988,71.0337198 12.7980861,73.3802424 18.5315719,73.3802424" stroke="#CC5829" stroke-linecap="round" mask="url(#mask-93)"></path>
                                </g>
                                <path d="M184.818099,223.038046 C178.450044,229.588754 171.279202,233.362988 163.305573,234.36075" id="Path-3" stroke="#CC5829" stroke-width="1" fill="none" stroke-linecap="round"></path>
                                <path d="M68.1592683,237.294194 C51.992763,249.301124 45.9837496,265.54807 50.132228,286.03503 C54.2807065,306.521991 66.1258223,342.764445 85.6675755,394.762394 L134.101388,419.657225 L253.828759,419.657225 L143.272844,364 C132.624881,306.185244 122.126415,271.157012 111.777446,258.915304 C101.428478,246.673596 86.8890853,239.466559 68.1592683,237.294194 Z" id="Path-149" stroke="none" fill="#37AFA4" fill-rule="evenodd"></path>
                                <path d="M32,211 L54,211 C71.673112,211 86,225.326888 86,243 L86,420 L86,420 L-9.09494702e-13,420 L-9.09494702e-13,243 C-9.11659034e-13,225.326888 14.326888,211 32,211 Z" id="Rectangle-Copy-4" stroke="none" fill="url(#linearGradient-94)" fill-rule="evenodd"></path>
                                <path d="M47,211 L69,211 C86.673112,211 101,225.326888 101,243 L101,420 L101,420 L15,420 L15,243 C15,225.326888 29.326888,211 47,211 Z" id="Rectangle" stroke="none" fill="#FFFFFF" fill-rule="evenodd"></path>
                                <g id="Path-163" stroke="none" stroke-width="1" fill="none" fill-rule="evenodd" transform="translate(40.525824, 198.721153)">
                                    <mask id="mask-96" fill="white">
                                        <use xlink:href="#path-95"></use>
                                    </mask>
                                    <use id="Mask" fill="#37AFA4" xlink:href="#path-95"></use>
                                    <path d="M-1.30562228e-13,77.2092871 C6.22575441,108.199507 13.4735536,131.79426 21.7433975,147.993546 C27.7418759,159.743595 33.3757942,170.668942 38.6451523,180.769589 C42.4257834,188.016548 48.1936355,194.035835 55.2727843,198.122061 L62.4741761,202.278847 L62.4741761,202.278847 L8.33567654,202.278847 L-1.99327731,107.239436 C-2.57824199,101.857023 -2.5183062,96.4240092 -1.81474319,91.0558107 L-1.30562228e-13,77.2092871 L-1.30562228e-13,77.2092871 Z" fill="#39A59B" mask="url(#mask-96)"></path>
                                </g>
                                <polygon id="Path-162" stroke="none" fill="#28938A" fill-rule="evenodd" points="91.1748829 198.951717 148.563059 238.170113 157.435517 219"></polygon>
                                <polygon id="Path-12" stroke="none" fill="#2A837B" fill-rule="evenodd" points="157.435517 219.443174 152.577821 208.615912 128.839828 212.896459"></polygon>
                                <path d="M101.162621,188.555352 L91.1748829,198.951717 L91.1748829,198.951717 L148.371746,232.81369 L152.735099,208.702686 L113.232774,186.743016 C109.264488,184.537013 104.308063,185.281221 101.162621,188.555352 Z" id="Path-8" stroke="none" fill="#37AFA4" fill-rule="evenodd"></path>
                                <path d="M345.916645,259.223951 L349.08767,260.918652 L349.08767,260.918652 L334.172274,265.258352 C332.051092,265.875516 330.831848,268.095385 331.449015,270.216566 C331.49825,270.385785 331.558614,270.551564 331.629714,270.712821 C334.576995,277.39742 336.584084,282.036917 337.650978,284.631314 C338.927519,287.735512 340.283993,291.379384 341.720402,295.562929 L341.720402,295.562929 L342.105364,297.52492 C342.312061,298.578365 341.625636,299.599912 340.57219,299.806609 C340.461461,299.828335 340.34905,299.840378 340.236231,299.84258 C338.393821,299.878889 336.807608,299.217387 335.477594,297.858077 C333.632877,295.972725 332.074196,293.088277 330.801552,289.204732 L317.597828,280.578894 C310.730216,276.092364 305.013689,270.053967 300.909694,262.951131 L300.909694,262.951131 L300.909694,262.951131 L293,261.433447 C293.064787,259.832684 293.276114,258.102273 293.63398,256.242215 L302.596582,251.814459 C307.19104,249.544679 312.456892,249.033216 317.402272,250.376407 L337.128832,255.734246 C340.18012,256.562992 343.128067,257.733644 345.916645,259.223951 Z" id="Path-125" stroke="none" fill="#F9946B" fill-rule="evenodd"></path>
                                <path d="M350.199377,260.918652 C350.199377,260.918652 343.134268,257.480804 334.689134,255" id="Path-11" stroke="#CC5829" stroke-width="1" fill="none" stroke-linecap="round"></path>
                                <polygon id="Path-133" stroke="none" fill="#F9946B" fill-rule="evenodd" points="324.1244 272.215722 291 307.245456 291 264.489002 309.851514 255"></polygon>
                                <path d="M316.358111,280.186123 C315.306536,278.351512 309.4378,275.911159 308,267" id="Path-10" stroke="#CC5829" stroke-width="1" fill="none" stroke-linecap="round"></path>
                                <path d="M333.5,265.5 C332.588967,267.985554 332.588967,270.887322 333.5,274.205303 C334.866549,279.182274 337.473438,283.168844 338.907391,285.779452 C339.863359,287.519857 340.79794,289.952118 341.711133,293.076234" id="Path-126" stroke="#CC5829" stroke-width="1" fill="none" stroke-linecap="round"></path>
                                <line x1="333.5" y1="265.5" x2="357.5" y2="259.5" id="Path-21" stroke="#CC5829" stroke-width="1" fill="none" stroke-linecap="round"></line>
                                <g id="Path-164" stroke="none" stroke-width="1" fill="none" fill-rule="evenodd" transform="translate(153.976026, 219.443174)">
                                    <mask id="mask-98" fill="white">
                                        <use xlink:href="#path-97"></use>
                                    </mask>
                                    <use id="Mask" fill="#37AFA4" xlink:href="#path-97"></use>
                                    <path d="M31.8420728,55.2999266 L64.6013659,123.784034 C69.3678051,133.748393 81.3094758,137.962139 91.2738341,133.1957 C92.244683,132.731295 93.1764636,132.189286 94.0600996,131.574952 L138.105968,100.952745 L138.105968,100.952745 L87.3050631,155.148973 L38.6601715,128.556826 L31.8420728,55.2999266 Z" fill="#39A59B" mask="url(#mask-98)"></path>
                                </g>
                                <rect id="Rectangle" stroke="#1A5986" stroke-width="1" fill="none" stroke-linejoin="round" transform="translate(138.500000, 274.500000) rotate(-8.000000) translate(-138.500000, -274.500000) " x="120" y="271" width="37" height="7"></rect>
                                <line x1="339.341343" y1="200.721153" x2="337.907391" y2="220.443174" id="Path-143" stroke="#1A5986" stroke-width="1" fill="none" stroke-linejoin="round"></line>
                                <path d="M191.636197,336.620768 C191.636197,336.216197 188.909491,271.518043 178,250" id="Path-150" stroke="#1A5986" stroke-width="1" fill="none" stroke-linejoin="round"></path>
                                <path d="M157.329484,219.443174 C167.979337,243.715074 174.086886,270.567162 175.652131,299.99944 C177.217377,329.431718 179.660397,357.26276 182.98119,383.492565" id="Path-151" stroke="#1A5986" stroke-width="1" fill="none" stroke-linejoin="round"></path>
                                <path d="M91.1748829,262.5 L93.8519095,265.192551 C103.630088,275.027433 110.754101,287.181685 114.557632,300.518508 L131.049099,358.344711 L131.049099,358.344711 L197.824968,390.610042" id="Path-153" stroke="#1A5986" stroke-width="1" fill="none" stroke-linejoin="round"></path>
                                <path d="M336.818194,296.577179 C337.918385,295.626897 339.092768,295.151756 340.341343,295.151756 C341.089409,296.518605 341.089409,297.420711 340.341343,297.858077 C339.593278,298.295442 338.418895,297.868476 336.818194,296.577179 Z" id="Path-161" stroke="#CC5829" stroke-width="1" fill="none" stroke-linecap="round"></path>
                                <line x1="233.863557" y1="305.739766" x2="229.55597" y2="328.47571" id="Path-14" stroke="#1A5986" stroke-width="1" fill="none" stroke-linejoin="round"></line>
                            </g>
                        </g>
                        <g id="Group-25" mask="url(#mask-2)">
                            <g transform="translate(619.000000, 24.000000)">
                                <g id="Oval-Copy-21">
                                    <use fill="black" fill-opacity="1" filter="url(#filter-100)" xlink:href="#path-99"></use>
                                    <use fill="#FFFFFF" fill-rule="evenodd" xlink:href="#path-99"></use>
                                </g>
                                <g id="1548285" stroke-width="1" fill-rule="evenodd" transform="translate(25.000000, 25.000000)">
                                    <path d="M40.8359315,53 C40.5385599,53 40.2406006,52.8865765 40.0131643,52.6591418 L22.3407138,34.9868212 C21.8864287,34.5325394 21.8864287,33.7955806 22.3407138,33.3407112 C22.7955864,32.8864296 23.5325508,32.8864296 23.9868358,33.3407112 L41.6592863,51.013032 C42.1135712,51.4673136 42.1135712,52.2048602 41.6592863,52.6591418 C41.4318499,52.8865765 41.1338906,53 40.8359315,53 L40.8359315,53 Z" id="Path" fill="#FB9466" fill-rule="nonzero"></path>
                                    <path d="M48.8590491,50 C48.5670072,50 48.2749653,49.8882529 48.0526217,49.6659108 L26.3343793,27.9477986 C25.8885402,27.502538 25.8885402,26.7796377 26.3343793,26.3343773 C26.7796424,25.8885409 27.502547,25.8885409 27.9478103,26.3343773 L49.6660527,48.0519135 C50.1113158,48.4977499 50.1113158,49.2200742 49.6660527,49.6659108 C49.4431331,49.8882529 49.1510911,50 48.8590491,50 L48.8590491,50 Z" id="Path" fill="#FB9466" fill-rule="nonzero"></path>
                                    <path d="M51.8361039,42 C51.5381512,42 51.2401987,41.8865789 51.0127673,41.6591493 L33.3407062,23.9872181 C32.8864313,23.5329465 32.8864313,22.7954162 33.3407062,22.3411445 C33.795569,21.8862852 34.5325169,21.8862852 34.9873797,22.3411445 L52.6588529,40.012488 C53.1137157,40.4673474 53.1137157,41.2042899 52.6588529,41.6591493 C52.4314216,41.8865789 52.133469,42 51.8361039,42 L51.8361039,42 Z" id="Path" fill="#FB9466" fill-rule="nonzero"></path>
                                    <path d="M67.9058279,23 C67.6258656,23 67.3464556,22.8934242 67.1327565,22.6797202 L51.3201343,6.86728638 C50.8932886,6.43987846 50.8932886,5.74741155 51.3201343,5.32055594 C51.7475324,4.89314802 52.4399834,4.89314802 52.8673815,5.32055594 L68.6794515,21.1329896 C69.1068495,21.5603976 69.1068495,22.2528646 68.6794515,22.6797202 C68.4657525,22.8934242 68.1857902,23 67.9058279,23 L67.9058279,23 Z" id="Path" fill="#FB9466" fill-rule="nonzero"></path>
                                    <path d="M21.9062505,69 C21.6262904,69 21.3463302,68.893425 21.1326328,68.6797228 L5.32013199,52.8668578 C4.89328934,52.4400055 4.89328934,51.7475439 5.32013199,51.3201393 C5.74752666,50.8932869 6.43997233,50.8932869 6.86736714,51.3201393 L22.6798681,67.1330041 C23.1067106,67.5598564 23.1067106,68.2528703 22.6798681,68.6797228 C22.4661707,68.893425 22.1862107,69 21.9062505,69 L21.9062505,69 Z" id="Path" fill="#FB9466" fill-rule="nonzero"></path>
                                    <path d="M20.7811088,47.7349805 C13.8248172,46.4683508 6.58447866,46.2667667 0.72958077,51.9045321 C-0.242908327,52.8415963 -0.243478811,54.3603435 0.72958077,55.2974078 C1.70264021,56.234472 3.2797268,56.2339228 4.25278624,55.2974078 C9.00001622,50.7257865 15.0425674,51.396452 22,52.8701586 C21.6058709,51.1437852 21.172386,49.4240031 20.7811088,47.7349805 L20.7811088,47.7349805 Z" id="Path" fill="#29DBC7" fill-rule="nonzero"></path>
                                    <path d="M55.266517,4.3037316 C56.2444943,3.3190156 56.2444943,1.72303663 55.266517,0.738320631 C54.289113,-0.246395515 52.7034826,-0.245818197 51.7260785,0.738320631 C37.7632446,14.7973648 58.0634406,35.8019473 46.6636412,47.2802966 C41.2606889,52.7210549 34.1878374,51.0967929 26,49.1816183 C26.4184781,50.9928956 26.8386758,52.8174486 27.1780443,54.6258399 C35.0087422,56.3834369 43.5084317,57.5880689 50.2046529,50.8457076 C64.2024555,36.7508766 43.8707305,15.7780404 55.266517,4.3037316 Z" id="Path" fill="#29DBC7" fill-rule="nonzero"></path>
                                    <path d="M48,26.8178484 C47.5826685,25.0134861 47.1578846,23.163524 46.8219557,21.3741689 C38.9912578,19.6165607 30.4915683,18.4119209 23.7953471,25.1543256 C9.86232272,39.1840225 30.090288,60.2614691 18.733483,71.6966015 C17.7555057,72.6807466 17.7555057,74.2773131 18.733483,75.2614582 C19.7114604,76.2461806 21.2965174,76.2461806 22.2739215,75.2614582 C36.325037,61.1140101 15.8763674,40.2582128 27.3363588,28.7197596 C32.7398843,23.2789663 39.8121626,24.9032387 48,26.8178484 L48,26.8178484 Z" id="Path" fill="#0084FF" fill-rule="nonzero"></path>
                                    <path d="M75.270645,20.7033608 C74.2976013,19.7655464 72.7205403,19.7655464 71.7474966,20.7033608 C67.0003435,25.278642 60.9578902,24.6074396 54,23.1325532 C54.3981153,24.875151 54.8270302,26.5748709 55.2194418,28.2718423 C62.9148146,29.6741663 69.7363874,29.4322916 75.270645,24.0984031 C76.2431183,23.1611384 76.2431183,21.6406255 75.270645,20.7033608 L75.270645,20.7033608 Z" id="Path" fill="#0084FF" fill-rule="nonzero"></path>
                                </g>
                            </g>
                        </g>
                        <g id="Group-20" mask="url(#mask-2)">
                            <g transform="translate(72.049069, 210.435451)">
                                <g id="Group-18" transform="translate(95.950931, 71.564549)">
                                    <ellipse id="Oval" fill="#8DE4D9" transform="translate(71.473078, 78.000000) rotate(27.000000) translate(-71.473078, -78.000000) " cx="71.4730778" cy="78" rx="47.5" ry="63"></ellipse>
                                    <path d="M100.074479,21.866589 C55.8736663,89.3427919 32.1564893,153.487942 28.9229483,214.30204" id="Path-16" stroke="#1A5986" stroke-linejoin="round"></path>
                                    <line x1="50.5979356" y1="115.842681" x2="102.648088" y2="115.921698" id="Path-130" stroke="#1A5986" stroke-linejoin="round"></line>
                                    <line x1="68.5979356" y1="75.8426808" x2="121.648088" y2="75.921698" id="Path-130-Copy" stroke="#1A5986" stroke-linejoin="round"></line>
                                    <line x1="61.8900038" y1="89.912052" x2="39" y2="40.0881362" id="Path-165" stroke="#1A5986" stroke-linejoin="round"></line>
                                </g>
                                <g id="Group-21" transform="translate(0.000000, 66.255747)">
                                    <ellipse id="Oval-Copy-2" fill="#D0E1F8" transform="translate(61.376732, 63.500000) scale(-1, 1) rotate(36.000000) translate(-61.376732, -63.500000) " cx="61.3767318" cy="63.5" rx="38" ry="50.5"></ellipse>
                                    <path d="M105.102462,22.7442535 C60.9016488,66.9253101 37.1844718,108.92531 33.9509308,148.744253" id="Path-16-Copy" stroke="#1A5986" stroke-linejoin="round" transform="translate(69.526696, 85.744253) scale(-1, 1) translate(-69.526696, -85.744253) "></path>
                                    <line x1="31" y1="84.8494428" x2="83.0501525" y2="84.92846" id="Path-130-Copy-5" stroke="#1A5986" stroke-linejoin="round"></line>
                                    <line x1="18" y1="52.8494428" x2="61.0501525" y2="52.92846" id="Path-130-Copy-4" stroke="#1A5986" stroke-linejoin="round"></line>
                                    <line x1="72.0250763" y1="67.3358904" x2="80.9177456" y2="29.0910766" id="Path-166" stroke="#1A5986" stroke-linejoin="round"></line>
                                </g>
                                <g id="Group-19" transform="translate(144.450931, 121.064549) scale(-1, 1) rotate(-353.000000) translate(-144.450931, -121.064549) translate(86.950931, 6.564549)">
                                    <g id="Group-17" transform="translate(0.000000, 0.223752)">
                                        <ellipse id="Oval-Copy-3" fill="#FFFFFF" transform="translate(57.917746, 64.500000) rotate(-21.000000) translate(-57.917746, -64.500000) " cx="57.9177456" cy="64.5" rx="40.5" ry="53.5"></ellipse>
                                        <path d="M106.020208,227.032862 C104.367093,178.334821 92.7784048,130.224382 71.2541426,82.7015472 L38.3767318,15.168889" id="Path-17" stroke="#1A5986" stroke-linejoin="round"></path>
                                        <line x1="90.4509308" y1="37.840797" x2="66.4509308" y2="72.840797" id="Path-130-Copy-2" stroke="#1A5986" stroke-linejoin="round"></line>
                                        <line x1="24" y1="88.8814376" x2="74.0501525" y2="88.9604548" id="Path-130-Copy-2" stroke="#1A5986" stroke-linejoin="round"></line>
                                        <line x1="15" y1="54.8814376" x2="58.0501525" y2="54.9604548" id="Path-130-Copy-3" stroke="#1A5986" stroke-linejoin="round"></line>
                                    </g>
                                </g>
                            </g>
                        </g>
                        <g id="Group-4" mask="url(#mask-2)">
                            <g transform="translate(310.000000, 361.000000)">
                                <g id="Group-2" transform="translate(0.000000, 8.232791)">
                                    <g id="Rectangle-Copy-2" transform="translate(0.000000, 16.402233)">
                                        <mask id="mask-102" fill="white">
                                            <use xlink:href="#path-101"></use>
                                        </mask>
                                        <use id="Mask" fill="#C9D0CF" xlink:href="#path-101"></use>
                                        <path d="M2.19302461,0 L18.4214067,0 L18.4214067,5.59816155 L20.7974836,8.7620131 C22.1021061,10.4991756 22.8074559,12.612954 22.8074559,14.7854579 L22.8074559,36.3671842 C22.8074559,38.2137401 21.3105266,39.7106694 19.4639708,39.7106694 L1.15046056,39.7106694 C-0.696095308,39.7106694 -2.19302461,38.2137401 -2.19302461,36.3671842 L-2.19302461,14.5776769 C-2.19302461,12.4180249 -1.49598481,10.3160474 -0.205557447,8.58431586 L2.19302461,5.36545961 L2.19302461,5.36545961 L2.19302461,0 Z" fill="#FFFFFF" mask="url(#mask-102)"></path>
                                        <rect id="Rectangle" fill="#1BCAB4" mask="url(#mask-102)" x="-1.88809778e-06" y="19.423697" width="21.930248" height="8.63275422"></rect>
                                        <ellipse id="Oval" fill="#FFFFFF" opacity="0.385904948" mask="url(#mask-102)" cx="12.7195427" cy="23.7400741" rx="2.63162953" ry="2.58982627"></ellipse>
                                        <rect id="Rectangle" fill="#FFFFFF" opacity="0.124581473" mask="url(#mask-102)" x="7.31008266" y="11.9899374" width="10.3559504" height="23.380378"></rect>
                                    </g>
                                    <path d="M11.786358,0 L13.6527275,0 C15.1175069,-2.69075601e-16 16.3465299,1.10457455 16.5023173,2.56104591 L17.9828018,16.402233 L17.9828018,16.402233 L7.45628367,16.402233 L8.93676814,2.56104591 C9.09255558,1.10457455 10.3215786,-1.06319203e-15 11.786358,0 Z" id="Rectangle" fill="#159F8E"></path>
                                    <path d="M6.41371963,12.9491313 L18.5867609,12.9491313 C20.4333168,12.9491313 21.9302461,14.4460606 21.9302461,16.2926165 L21.9302461,19.423697 L21.9302461,19.423697 L3.07023445,19.423697 L3.07023445,16.2926165 C3.07023445,14.4460606 4.56716375,12.9491313 6.41371963,12.9491313 Z" id="Rectangle" fill="#1BCAB4"></path>
                                </g>
                                <g id="Group-2-Copy" transform="translate(21.000000, 0.000000)">
                                    <g id="Rectangle-Copy-2" transform="translate(0.000000, 9.029113)">
                                        <mask id="mask-104" fill="white">
                                            <use xlink:href="#path-103"></use>
                                        </mask>
                                        <use id="Mask" fill="#DCE4E2" xlink:href="#path-103"></use>
                                        <path d="M3.02090165,0 L25.3755738,0 L25.3755738,7.8069228 L28.6748757,12.2544543 C30.4558585,14.6552583 31.4173771,17.5652585 31.4173771,20.5545326 L31.4173771,50.734831 C31.4173771,53.2994922 29.3383085,55.3785608 26.7736473,55.3785608 L1.62282816,55.3785608 C-0.941832993,55.3785608 -3.02090165,53.2994922 -3.02090165,50.734831 L-3.02090165,20.2650482 C-3.02090165,17.2935524 -2.07077213,14.3999045 -0.309301154,12.0067879 L3.02090165,7.48240803 L3.02090165,7.48240803 L3.02090165,0 Z" fill="#FFFFFF" mask="url(#mask-104)"></path>
                                        <rect id="Rectangle" fill="#1BCAB4" mask="url(#mask-104)" x="0" y="27.0873395" width="34.4382788" height="12.0388176"></rect>
                                        <ellipse id="Oval" fill="#FFFFFF" opacity="0.0558268229" mask="url(#mask-104)" cx="17.5212295" cy="33.1067483" rx="3.62508197" ry="3.61164527"></ellipse>
                                        <rect id="Rectangle" fill="#DCE4E2" opacity="0.228538876" mask="url(#mask-104)" x="9.06270494" y="16.2524037" width="16.9170492" height="34.3106301"></rect>
                                    </g>
                                    <path d="M8.87299211,0 L25.5652866,0 C28.1299478,-4.71120611e-16 30.2090165,2.07906865 30.2090165,4.64372981 L30.2090165,13.2426993 L30.2090165,13.2426993 L4.2292623,13.2426993 L4.2292623,4.64372981 C4.2292623,2.07906865 6.30833096,-4.17057809e-16 8.87299211,0 Z" id="Rectangle" fill="#1BCAB4"></path>
                                </g>
                            </g>
                        </g>
                        <g id="Group-9-Copy-2" mask="url(#mask-2)">
                            <g transform="translate(1101.000000, 361.614035)">
                                <path d="M23.0309106,4.63839899 L23.0309106,29.573187 L5.1640272,55.4130172 C3.6714156,57.5716942 4.21136829,60.5316484 6.37004528,62.02426 C7.16633232,62.5748506 8.11179079,62.8690981 9.07989247,62.8676242 L47.7375776,62.8087686 C50.3620318,62.8047729 52.4863331,60.6739932 52.4823374,58.0495391 C52.4808181,57.0516537 52.1651982,56.0795688 51.5802304,55.2711195 L32.9860365,29.573187 L32.9860365,29.573187 L32.9860365,4.63839899 L34.4030113,4.63839899 C35.6838698,4.63839899 36.7222108,3.60005801 36.7222108,2.31919949 C36.7222108,1.03834098 35.6838698,-2.59924641e-14 34.4030113,-2.48689958e-14 L21.7367794,-2.48689958e-14 C20.4559209,-2.55218843e-14 19.4175799,1.03834098 19.4175799,2.31919949 C19.4175799,3.60005801 20.4559209,4.63839899 21.7367794,4.63839899 L23.0309106,4.63839899 L23.0309106,4.63839899 Z" id="Path-116" stroke="#1A5986" stroke-width="1" fill="#FFFFFF" stroke-linejoin="round"></path>
                                <path d="M35.6894989,39.0191917 L46.983403,55.2909919 C47.2535057,55.6801613 47.4011116,56.1411862 47.407266,56.6148637 C47.4243139,57.9269815 46.3744523,59.0044833 45.0623344,59.0215312 L45.0623344,59.0215312 L11.3309363,59.4597922 C10.8429691,59.4661322 10.3648847,59.3220633 9.96166661,59.047168 C8.87743484,58.3079891 8.59771417,56.8298227 9.33689303,55.7455909 L9.33689303,55.7455909 L20.7404989,39.0191917 L35.6894989,39.0191917 Z" id="Combined-Shape" stroke="none" fill="#FB9466"></path>
                                <ellipse id="Oval" stroke="none" fill="#FFFFFF" cx="37.6522724" cy="52.0956828" rx="3.56399998" ry="3.56631577"></ellipse>
                                <ellipse id="Oval-Copy-11" stroke="none" fill="#FFFFFF" cx="28.1482725" cy="39.0191917" rx="2.37599999" ry="2.37754385"></ellipse>
                                <ellipse id="Oval-Copy-12" stroke="none" fill="#FFFFFF" cx="21.0202725" cy="47.3405951" rx="2.37599999" ry="2.37754385"></ellipse>
                                <ellipse id="Oval-Copy-10" stroke="none" fill="#FFFFFF" opacity="0.229999989" cx="28.1482725" cy="31.8865601" rx="1.18799999" ry="1.18877192"></ellipse>
                            </g>
                        </g>
                        <g id="Group-8-Copy-2" mask="url(#mask-2)">
                            <g transform="translate(1133.400000, 340.000000)">
                                <path d="M28.4905545,6.22590453 L28.4905545,39.6946963 L4.65565926,77.0970264 C3.24524551,79.3102839 3.89607897,82.2478499 6.10933647,83.6582637 C6.87235711,84.1445039 7.7583347,84.4028066 8.66311647,84.4028066 L61.2983882,84.4028066 C63.9228454,84.4028066 66.0503884,82.2752637 66.0503884,79.6508064 C66.0503884,78.7257187 65.7803711,77.8207458 65.2734609,77.0469051 L40.8056151,39.6946963 L40.8056151,39.6946963 L40.8056151,6.22590453 L42.3145242,6.22590453 C44.0337603,6.22590453 45.4274765,4.83218833 45.4274765,3.11295226 C45.4274765,1.3937162 44.0337603,5.72359879e-16 42.3145242,0 L27.1336099,0 C25.4143738,-2.34871672e-15 24.0206576,1.3937162 24.0206576,3.11295226 C24.0206576,4.83218833 25.4143738,6.22590453 27.1336099,6.22590453 L28.4905545,6.22590453 L28.4905545,6.22590453 Z" id="Path-116-Copy" stroke="#1A5986" stroke-width="1" fill="#FFFFFF" stroke-linejoin="round"></path>
                                <path d="M43.4338697,51.1171927 L58.2686287,74.1783751 C58.5095721,74.5529597 58.6403794,74.987725 58.6461281,75.4330723 C58.6630653,76.7451916 57.6131128,77.8226048 56.3009935,77.8395421 L56.3009935,77.8395421 L12.6973308,78.4023914 C12.2371565,78.4083315 11.7851607,78.2805026 11.3962567,78.0344348 C10.2873542,77.3328086 9.9571916,75.8650851 10.6588178,74.7561827 L10.6588178,74.7561827 L25.6148697,51.1171927 L43.4338697,51.1171927 Z" id="Combined-Shape" stroke="none" fill="#FB9466"></path>
                                <ellipse id="Oval" stroke="none" fill="#FFFFFF" cx="45.1439998" cy="67.7599997" rx="3.56399998" ry="3.56631577"></ellipse>
                                <ellipse id="Oval-Copy-11" stroke="none" fill="#FFFFFF" cx="34.4519998" cy="51.1171927" rx="2.37599999" ry="2.37754385"></ellipse>
                                <ellipse id="Oval-Copy-12" stroke="none" fill="#FFFFFF" cx="28.5119999" cy="64.1936839" rx="2.37599999" ry="2.37754385"></ellipse>
                                <ellipse id="Oval-Copy-10" stroke="none" fill="#FFFFFF" opacity="0.229999989" cx="34.4519998" cy="40.4182454" rx="1.18799999" ry="1.18877192"></ellipse>
                            </g>
                        </g>
                        <g id="Group-13" mask="url(#mask-2)">
                            <g transform="translate(1059.820289, 356.704136) rotate(-11.000000) translate(-1059.820289, -356.704136) translate(1032.820289, 292.204136)">
                                <path d="M32.0211602,2.8797208 C32.393441,0.963257671 34.2406443,-0.295122896 36.1603714,0.0599429611 L36.1603714,0.0599429611 L51.0503943,2.81394833 C51.0606734,2.81584951 51.0709439,2.81779682 51.0812055,2.81979018 C52.9755858,3.1877813 54.2129688,5.0217957 53.8449776,6.916176 C53.47124,8.8401387 51.6292781,10.1133594 49.6973724,9.78312816 L49.6973724,9.78312816 L48.3745632,9.55701314 L35.7119577,80.2663603 C44.5397599,84.231526 50.6880031,93.1045618 50.6880031,103.41453 C50.6880031,117.42073 39.3411071,128.774999 25.3440016,128.774999 C11.346896,128.774999 3.44613227e-13,117.42073 3.44613227e-13,103.41453 C3.44613227e-13,89.7810425 10.7510361,78.6602257 24.2323823,78.0780172 L36.8902757,7.41586676 L34.8100011,7.01225375 C34.8097399,7.01220307 34.8094787,7.01215236 34.8092176,7.01210163 L34.6203596,6.970102 C32.8167737,6.51746731 31.6623097,4.72704618 32.0211602,2.8797208 Z" id="Combined-Shape" stroke="#1A5986" stroke-width="1.20000005" fill="#FFFFFF" stroke-linejoin="round"></path>
                                <path d="M5.0861334,94.3732598 L47.5077236,102.669023 C47.5158884,102.916521 47.5200029,103.165044 47.5200029,103.41453 C47.5200029,115.669955 37.5914689,125.604941 25.3440016,125.604941 C13.0965342,125.604941 3.16800019,115.669955 3.16800019,103.41453 C3.16800019,100.194553 3.85338383,97.134761 5.0861334,94.3732598 Z" id="Combined-Shape" stroke="none" fill="#0087FF"></path>
                                <path d="M26.1335738,101.865338 C37.9438194,101.866522 47.9764792,101.308219 47.9764792,99.1197853 C47.9764792,96.9313512 37.9430243,93.9415012 26.1327786,93.940315 C14.322533,93.9391299 4.74883487,95.712245 4.74883487,97.9006791 C4.74883487,100.089113 14.3233282,101.864151 26.1335738,101.865338 Z" id="Oval" stroke="none" fill="#0058A6" transform="translate(26.362657, 97.902827) rotate(9.000000) translate(-26.362657, -97.902827) "></path>
                                <ellipse id="Oval" stroke="none" fill="#FFFFFF" opacity="0.600000024" cx="22.1760014" cy="111.339677" rx="4.75200029" ry="4.75508801"></ellipse>
                                <ellipse id="Oval-Copy-9" stroke="none" fill="#0058A6" cx="16.6080011" cy="94.7193247" rx="3.16800019" ry="3.17005867"></ellipse>
                                <ellipse id="Oval-Copy-8" stroke="none" fill="#0058A6" cx="37.6080023" cy="95.0818978" rx="2.37600015" ry="2.37754401"></ellipse>
                                <ellipse id="Oval-Copy-27" stroke="none" fill="#FFFFFF" cx="29.808002" cy="98.0815081" rx="1.77600012" ry="1.77715412"></ellipse>
                                <ellipse id="Oval-Copy-26" stroke="none" fill="#0087FF" cx="30.408002" cy="87.8818976" rx="2.37600015" ry="2.37754401"></ellipse>
                            </g>
                        </g>
                        <polyline id="Path-15" stroke="#1A5986" stroke-width="1.20000005" stroke-linejoin="round" mask="url(#mask-2)" points="1029.1832 424.827604 1029.1832 353.245456 1102.1832 352.90941 1102.1832 424.827604"></polyline>
                    </g>
                </g>
            </g>
        </g>
    </g>
</svg>