<?xml version="1.0" encoding="utf-8"?>
<!-- Generator: Adobe Illustrator 23.1.1, SVG Export Plug-In . SVG Version: 6.00 Build 0)  -->
<svg version="1.1" id="Layer_1" xmlns="http://www.w3.org/2000/svg" xmlns:xlink="http://www.w3.org/1999/xlink" x="0px" y="0px"
	 viewBox="0 0 497 534" style="enable-background:new 0 0 497 534;" xml:space="preserve">
<style type="text/css">
	.st0{fill-rule:evenodd;clip-rule:evenodd;fill:#132832;}
	.st1{fill-rule:evenodd;clip-rule:evenodd;fill:#FB9466;}
	.st2{filter:url(#Adobe_OpacityMaskFilter);}
	.st3{fill-rule:evenodd;clip-rule:evenodd;fill:#FFFFFF;}
	.st4{mask:url(#mask-2_1_);fill-rule:evenodd;clip-rule:evenodd;fill:#F27C57;}
	.st5{fill-rule:evenodd;clip-rule:evenodd;fill:url(#Path-185_1_);}
	.st6{fill-rule:evenodd;clip-rule:evenodd;fill:#2FAFA4;}
	.st7{fill-rule:evenodd;clip-rule:evenodd;fill:#EC8A5F;}
	.st8{filter:url(#Adobe_OpacityMaskFilter_1_);}
	.st9{mask:url(#mask-5_1_);fill-rule:evenodd;clip-rule:evenodd;fill:url(#SVGID_1_);}
	.st10{filter:url(#Adobe_OpacityMaskFilter_2_);}
	.st11{mask:url(#mask-5_2_);fill-rule:evenodd;clip-rule:evenodd;fill:#2FAFA4;}
	.st12{filter:url(#Adobe_OpacityMaskFilter_3_);}
	.st13{mask:url(#mask-5_3_);fill-rule:evenodd;clip-rule:evenodd;fill:#30A39A;}
	.st14{filter:url(#Adobe_OpacityMaskFilter_4_);}
	.st15{mask:url(#mask-5_4_);fill-rule:evenodd;clip-rule:evenodd;fill:#FFFFFF;}
	.st16{filter:url(#Adobe_OpacityMaskFilter_5_);}
	.st17{mask:url(#mask-5_5_);fill-rule:evenodd;clip-rule:evenodd;fill:#FFFFFF;}
	.st18{filter:url(#Adobe_OpacityMaskFilter_6_);}
	.st19{mask:url(#mask-5_6_);fill:none;stroke:#1A5986;stroke-width:1.6;stroke-linejoin:round;}
	.st20{filter:url(#Adobe_OpacityMaskFilter_7_);}
	.st21{opacity:0.1929;mask:url(#mask-5_7_);fill-rule:evenodd;clip-rule:evenodd;fill:url(#Path-6_1_);enable-background:new    ;}
	.st22{filter:url(#Adobe_OpacityMaskFilter_8_);}
	.st23{mask:url(#mask-5_8_);fill-rule:evenodd;clip-rule:evenodd;fill:url(#Path-5_1_);}
	.st24{filter:url(#Adobe_OpacityMaskFilter_9_);}
	.st25{mask:url(#mask-5_9_);fill-rule:evenodd;clip-rule:evenodd;fill:#5C5B5B;}
	.st26{filter:url(#Adobe_OpacityMaskFilter_10_);}
	.st27{mask:url(#mask-5_10_);fill-rule:evenodd;clip-rule:evenodd;fill:#5C5B5B;}
	.st28{filter:url(#Adobe_OpacityMaskFilter_11_);}
	.st29{mask:url(#mask-5_11_);fill-rule:evenodd;clip-rule:evenodd;fill:#5C5B5B;}
	.st30{filter:url(#Adobe_OpacityMaskFilter_12_);}
	.st31{mask:url(#mask-5_12_);fill:none;stroke:#1A5986;stroke-width:1.6;stroke-linejoin:round;}
	.st32{filter:url(#Adobe_OpacityMaskFilter_13_);}
	.st33{mask:url(#mask-5_13_);fill-rule:evenodd;clip-rule:evenodd;fill:#FFFFFF;}
	.st34{filter:url(#Adobe_OpacityMaskFilter_14_);}
	.st35{mask:url(#mask-5_14_);fill:none;stroke:#1A5986;stroke-width:1.6;stroke-linejoin:round;}
	.st36{filter:url(#Adobe_OpacityMaskFilter_15_);}
	.st37{mask:url(#mask-5_15_);fill-rule:evenodd;clip-rule:evenodd;fill:url(#Path-7_1_);}
	.st38{filter:url(#Adobe_OpacityMaskFilter_16_);}
	.st39{mask:url(#mask-5_16_);fill-rule:evenodd;clip-rule:evenodd;fill:#5C5B5B;}
	.st40{filter:url(#Adobe_OpacityMaskFilter_17_);}
	.st41{mask:url(#mask-5_17_);fill-rule:evenodd;clip-rule:evenodd;fill:#5C5B5B;}
	.st42{filter:url(#Adobe_OpacityMaskFilter_18_);}
	.st43{mask:url(#mask-5_18_);fill-rule:evenodd;clip-rule:evenodd;fill:#5C5B5B;}
	.st44{fill-rule:evenodd;clip-rule:evenodd;fill:#F1775B;}
	.st45{fill:none;stroke:#000000;stroke-width:2.112;stroke-linecap:round;}
	.st46{fill:none;stroke:#000000;stroke-width:1.92;stroke-linecap:round;}
	.st47{filter:url(#Adobe_OpacityMaskFilter_19_);}
	.st48{mask:url(#mask-11_1_);fill-rule:evenodd;clip-rule:evenodd;fill:#F27C57;}
	.st49{fill:#FFFFFF;}
	.st50{fill:#1FAF9E;}
</style>
<title>0EBFC6A0-B9CC-4B55-BDFB-EF2F54DC5DC8</title>
<desc>Created with sketchtool.</desc>
<g id="Design">
	<g id="Our-Story_V7" transform="translate(-109.000000, -1382.000000)">
		<g id="Quotes" transform="translate(103.000000, 1382.000000)">
			<g id="img_Quote_doctor">
				<path id="Path-183" class="st0" d="M237.9,67.9c5.9-26.7-0.8-46.7-20.2-59.9c-29.1-19.8-67.1,0-72.1,27
					c-3.3,18-4.2,30.1-2.6,36.4c5.8,15.3,15.7,21.7,29.9,19.2c13-2.3,36.3-3.3,61.8-14.1C236.3,75.8,237.4,73,237.9,67.9z"/>
				<g id="Path-186" transform="translate(403.200000, 248.514321)">
					<g id="Mask">
						<path class="st1" d="M0,44.8c2-0.3,3.8-1.3,5.4-2.8c2.4-2.4,3-13.9,15.9-22.3S43.5,2.9,44.9,1c1.4-1.9,6.6-1.5,5.1,4.3
							S31.3,21.8,32.4,26.1s16.5,6.4,31.7,1.7s23-13.7,29-9.2c3.4-0.6,5.4,0.3,5.9,2.7c0.8,3.5-3.2,4.8-5.9,4.8
							c0.3,1.2-0.7,2.5-2.9,3.9c-3.3,2.1-36.1,39.9-67.4,39.9L7.8,76L0,44.8z"/>
					</g>
					<defs>
						<filter id="Adobe_OpacityMaskFilter" filterUnits="userSpaceOnUse" x="2.3" y="41.8" width="22.7" height="36.5">
							<feColorMatrix  type="matrix" values="1 0 0 0 0  0 1 0 0 0  0 0 1 0 0  0 0 0 1 0"/>
						</filter>
					</defs>
					<mask maskUnits="userSpaceOnUse" x="2.3" y="41.8" width="22.7" height="36.5" id="mask-2_1_">
						<g class="st2">
							<path id="path-1_1_" class="st3" d="M0,44.8c2-0.3,3.8-1.3,5.4-2.8c2.4-2.4,3-13.9,15.9-22.3S43.5,2.9,44.9,1
								c1.4-1.9,6.6-1.5,5.1,4.3S31.3,21.8,32.4,26.1s16.5,6.4,31.7,1.7s23-13.7,29-9.2c3.4-0.6,5.4,0.3,5.9,2.7
								c0.8,3.5-3.2,4.8-5.9,4.8c0.3,1.2-0.7,2.5-2.9,3.9c-3.3,2.1-36.1,39.9-67.4,39.9L7.8,76L0,44.8z"/>
						</g>
					</mask>
					<polygon class="st4" points="2.3,41.8 25,76 4.9,78.4 					"/>
				</g>
				
					<linearGradient id="Path-185_1_" gradientUnits="userSpaceOnUse" x1="-227.1156" y1="762.7219" x2="-227.1081" y2="762.0882" gradientTransform="matrix(14.4373 0 0 -47.5501 3681.644 36583.4727)">
					<stop  offset="0" style="stop-color:#FFFFFF"/>
					<stop  offset="1" style="stop-color:#C5BBBB"/>
				</linearGradient>
				<path id="Path-185" class="st5" d="M406.4,344.5c5.6-11.5,4.6-25.3-3.2-41.4c-11.6-24.2-6.6,30.7-6.6,30.7
					S399.9,337.4,406.4,344.5z"/>
				<polygon id="Rectangle" class="st6" points="385.6,293 406.1,287.9 416.6,327.7 395,333.8 				"/>
				<g id="Path-165" transform="translate(0.000000, 110.314321)">
					<g>
						<path class="st7" d="M157.2,0l-3.6,38.1l-69.9,16C68,57.8,55.4,69.6,50.8,85.1L7.9,229.8c-4.5,15.2,3.4,31.2,18.1,37
							l60.2,23.5l0,0L58.3,423l225.9-2.1l-15.6-173l1,1c9,9,22.1,12.7,34.5,9.7l102.2-24.4l0,0c-5.5-11.4-9-20.7-10.5-27.9
							c-1.5-7.2-1.9-15.8-1-25.9l-85.7,18.5L292,106.8c-4.8-26-23.5-47.2-48.7-55.3L217.2,43l0,0V1.1L157.2,0z"/>
					</g>
					<defs>
						<filter id="Adobe_OpacityMaskFilter_1_" filterUnits="userSpaceOnUse" x="141.5" y="-1" width="79.8" height="46.7">
							<feColorMatrix  type="matrix" values="1 0 0 0 0  0 1 0 0 0  0 0 1 0 0  0 0 0 1 0"/>
						</filter>
					</defs>
					<mask maskUnits="userSpaceOnUse" x="141.5" y="-1" width="79.8" height="46.7" id="mask-5_1_">
						<g class="st8">
							<path id="path-4_1_" class="st3" d="M157.2,0l-3.6,38.1l-69.9,16C68,57.8,55.4,69.6,50.8,85.1L7.9,229.8
								c-4.5,15.2,3.4,31.2,18.1,37l60.2,23.5l0,0L58.3,423l225.9-2.1l-15.6-173l1,1c9,9,22.1,12.7,34.5,9.7l102.2-24.4l0,0
								c-5.5-11.4-9-20.7-10.5-27.9c-1.5-7.2-1.9-15.8-1-25.9l-85.7,18.5L292,106.8c-4.8-26-23.5-47.2-48.7-55.3L217.2,43l0,0V1.1
								L157.2,0z"/>
						</g>
					</mask>
					
						<linearGradient id="SVGID_1_" gradientUnits="userSpaceOnUse" x1="-241.356" y1="651.7162" x2="-241.356" y2="652.7162" gradientTransform="matrix(79.836 0 0 -46.6854 19450.3047 30471.3477)">
						<stop  offset="0" style="stop-color:#EE8A5A"/>
						<stop  offset="1" style="stop-color:#F37756"/>
					</linearGradient>
					<path class="st9" d="M221.3,5.9c-15.3,28.2-35.2,41.4-59.9,39.7C136.7,43.8,135,28.3,156.2-1L221.3,5.9z"/>
					<defs>
						<filter id="Adobe_OpacityMaskFilter_2_" filterUnits="userSpaceOnUse" x="137.3" y="22.3" width="122.7" height="473.5">
							<feColorMatrix  type="matrix" values="1 0 0 0 0  0 1 0 0 0  0 0 1 0 0  0 0 0 1 0"/>
						</filter>
					</defs>
					<mask maskUnits="userSpaceOnUse" x="137.3" y="22.3" width="122.7" height="473.5" id="mask-5_2_">
						<g class="st10">
							<path id="path-4_2_" class="st3" d="M157.2,0l-3.6,38.1l-69.9,16C68,57.8,55.4,69.6,50.8,85.1L7.9,229.8
								c-4.5,15.2,3.4,31.2,18.1,37l60.2,23.5l0,0L58.3,423l225.9-2.1l-15.6-173l1,1c9,9,22.1,12.7,34.5,9.7l102.2-24.4l0,0
								c-5.5-11.4-9-20.7-10.5-27.9c-1.5-7.2-1.9-15.8-1-25.9l-85.7,18.5L292,106.8c-4.8-26-23.5-47.2-48.7-55.3L217.2,43l0,0V1.1
								L157.2,0z"/>
						</g>
					</mask>
					<path id="Path-3" class="st11" d="M148.2,22.3l4.8,18c5,18.6,24.1,29.6,42.7,24.6c14-3.8,24.3-15.9,25.6-30.4l0,0l0,0
						L260,495.9c-84.4-2.3-125.3-5-122.6-8.2C140.1,484.6,143.7,329.5,148.2,22.3z"/>
					<defs>
						<filter id="Adobe_OpacityMaskFilter_3_" filterUnits="userSpaceOnUse" x="151.4" y="39.8" width="89.5" height="400.2">
							<feColorMatrix  type="matrix" values="1 0 0 0 0  0 1 0 0 0  0 0 1 0 0  0 0 0 1 0"/>
						</filter>
					</defs>
					<mask maskUnits="userSpaceOnUse" x="151.4" y="39.8" width="89.5" height="400.2" id="mask-5_3_">
						<g class="st12">
							<path id="path-4_3_" class="st3" d="M157.2,0l-3.6,38.1l-69.9,16C68,57.8,55.4,69.6,50.8,85.1L7.9,229.8
								c-4.5,15.2,3.4,31.2,18.1,37l60.2,23.5l0,0L58.3,423l225.9-2.1l-15.6-173l1,1c9,9,22.1,12.7,34.5,9.7l102.2-24.4l0,0
								c-5.5-11.4-9-20.7-10.5-27.9c-1.5-7.2-1.9-15.8-1-25.9l-85.7,18.5L292,106.8c-4.8-26-23.5-47.2-48.7-55.3L217.2,43l0,0V1.1
								L157.2,0z"/>
						</g>
					</mask>
					<path id="Path-9" class="st13" d="M227,325.1c0,0.3-10.4,9-33.5,12s-2.2,76.4-21.3,96.8c-12.7,13.6-18.6,4.5-17.8-27.2
						l-3-366.9c9,18.5,16.7,54.6,23,108.2c3.2,27.3,4.4,65.4,15,104.2c2.5,9.2,42.3,16.7,50.1,28.3c3.9,5.8-0.2,16.2-12.5,31.1
						C227,320.4,227,324.9,227,325.1z"/>
					<defs>
						<filter id="Adobe_OpacityMaskFilter_4_" filterUnits="userSpaceOnUse" x="-37.8" y="22.3" width="211.7" height="473.5">
							<feColorMatrix  type="matrix" values="1 0 0 0 0  0 1 0 0 0  0 0 1 0 0  0 0 0 1 0"/>
						</filter>
					</defs>
					<mask maskUnits="userSpaceOnUse" x="-37.8" y="22.3" width="211.7" height="473.5" id="mask-5_4_">
						<g class="st14">
							<path id="path-4_4_" class="st3" d="M157.2,0l-3.6,38.1l-69.9,16C68,57.8,55.4,69.6,50.8,85.1L7.9,229.8
								c-4.5,15.2,3.4,31.2,18.1,37l60.2,23.5l0,0L58.3,423l225.9-2.1l-15.6-173l1,1c9,9,22.1,12.7,34.5,9.7l102.2-24.4l0,0
								c-5.5-11.4-9-20.7-10.5-27.9c-1.5-7.2-1.9-15.8-1-25.9l-85.7,18.5L292,106.8c-4.8-26-23.5-47.2-48.7-55.3L217.2,43l0,0V1.1
								L157.2,0z"/>
						</g>
					</mask>
					<path id="Path" class="st15" d="M152.1,37.1c12.8,68.9,20,132.2,21.5,189.9c1.5,57.7-1.9,142.8-10,255.4l-177.1,13.5
						C-29.6,258.1-37.8,137.8-37.8,135c0-2.8,33.6-40.4,100.7-112.7L152.1,37.1z"/>
					<defs>
						<filter id="Adobe_OpacityMaskFilter_5_" filterUnits="userSpaceOnUse" x="211.5" y="17.5" width="272.6" height="465.5">
							<feColorMatrix  type="matrix" values="1 0 0 0 0  0 1 0 0 0  0 0 1 0 0  0 0 0 1 0"/>
						</filter>
					</defs>
					<mask maskUnits="userSpaceOnUse" x="211.5" y="17.5" width="272.6" height="465.5" id="mask-5_5_">
						<g class="st16">
							<path id="path-4_5_" class="st3" d="M157.2,0l-3.6,38.1l-69.9,16C68,57.8,55.4,69.6,50.8,85.1L7.9,229.8
								c-4.5,15.2,3.4,31.2,18.1,37l60.2,23.5l0,0L58.3,423l225.9-2.1l-15.6-173l1,1c9,9,22.1,12.7,34.5,9.7l102.2-24.4l0,0
								c-5.5-11.4-9-20.7-10.5-27.9c-1.5-7.2-1.9-15.8-1-25.9l-85.7,18.5L292,106.8c-4.8-26-23.5-47.2-48.7-55.3L217.2,43l0,0V1.1
								L157.2,0z"/>
						</g>
					</mask>
					<path id="Path-2" class="st17" d="M217.3,43.2c-5.9,73-7.3,137.2-4.3,192.6c3,55.4,12.5,137.8,28.4,247.2l242.7-19.1
						L412.3,64.6L255.2,17.5L217.3,43.2z"/>
					<defs>
						<filter id="Adobe_OpacityMaskFilter_6_" filterUnits="userSpaceOnUse" x="253.6" y="103.5" width="21.6" height="220.7">
							<feColorMatrix  type="matrix" values="1 0 0 0 0  0 1 0 0 0  0 0 1 0 0  0 0 0 1 0"/>
						</filter>
					</defs>
					<mask maskUnits="userSpaceOnUse" x="253.6" y="103.5" width="21.6" height="220.7" id="mask-5_6_">
						<g class="st18">
							<path id="path-4_6_" class="st3" d="M157.2,0l-3.6,38.1l-69.9,16C68,57.8,55.4,69.6,50.8,85.1L7.9,229.8
								c-4.5,15.2,3.4,31.2,18.1,37l60.2,23.5l0,0L58.3,423l225.9-2.1l-15.6-173l1,1c9,9,22.1,12.7,34.5,9.7l102.2-24.4l0,0
								c-5.5-11.4-9-20.7-10.5-27.9c-1.5-7.2-1.9-15.8-1-25.9l-85.7,18.5L292,106.8c-4.8-26-23.5-47.2-48.7-55.3L217.2,43l0,0V1.1
								L157.2,0z"/>
						</g>
					</mask>
					<line id="Path-303" class="st19" x1="254.4" y1="103.6" x2="274.4" y2="324.1"/>
					<defs>
						<filter id="Adobe_OpacityMaskFilter_7_" filterUnits="userSpaceOnUse" x="44.8" y="91.9" width="129.2" height="191">
							<feColorMatrix  type="matrix" values="1 0 0 0 0  0 1 0 0 0  0 0 1 0 0  0 0 0 1 0"/>
						</filter>
					</defs>
					<mask maskUnits="userSpaceOnUse" x="44.8" y="91.9" width="129.2" height="191" id="mask-5_7_">
						<g class="st20">
							<path id="path-4_7_" class="st3" d="M157.2,0l-3.6,38.1l-69.9,16C68,57.8,55.4,69.6,50.8,85.1L7.9,229.8
								c-4.5,15.2,3.4,31.2,18.1,37l60.2,23.5l0,0L58.3,423l225.9-2.1l-15.6-173l1,1c9,9,22.1,12.7,34.5,9.7l102.2-24.4l0,0
								c-5.5-11.4-9-20.7-10.5-27.9c-1.5-7.2-1.9-15.8-1-25.9l-85.7,18.5L292,106.8c-4.8-26-23.5-47.2-48.7-55.3L217.2,43l0,0V1.1
								L157.2,0z"/>
						</g>
					</mask>
					
						<linearGradient id="Path-6_1_" gradientUnits="userSpaceOnUse" x1="-242.5738" y1="655.5467" x2="-242.5204" y2="656.3814" gradientTransform="matrix(129.1894 0 0 -190.9977 31445.2051 125476.3516)">
						<stop  offset="0" style="stop-color:#DCEAFB"/>
						<stop  offset="1" style="stop-color:#BED7F7;stop-opacity:0"/>
					</linearGradient>
					<path id="Path-6" class="st21" d="M113.9,96.5c11.2-8.6,23.6-5.3,37.4,9.7c13.8,15.1,21.3,66,22.6,152.9l-1.8,23.8L57.9,253.4
						c-8.8-48.6-13.1-73.6-13.1-75.1S67.8,149.6,113.9,96.5z"/>
					<defs>
						<filter id="Adobe_OpacityMaskFilter_8_" filterUnits="userSpaceOnUse" x="29.2" y="275" width="144.8" height="196.6">
							<feColorMatrix  type="matrix" values="1 0 0 0 0  0 1 0 0 0  0 0 1 0 0  0 0 0 1 0"/>
						</filter>
					</defs>
					<mask maskUnits="userSpaceOnUse" x="29.2" y="275" width="144.8" height="196.6" id="mask-5_8_">
						<g class="st22">
							<path id="path-4_8_" class="st3" d="M157.2,0l-3.6,38.1l-69.9,16C68,57.8,55.4,69.6,50.8,85.1L7.9,229.8
								c-4.5,15.2,3.4,31.2,18.1,37l60.2,23.5l0,0L58.3,423l225.9-2.1l-15.6-173l1,1c9,9,22.1,12.7,34.5,9.7l102.2-24.4l0,0
								c-5.5-11.4-9-20.7-10.5-27.9c-1.5-7.2-1.9-15.8-1-25.9l-85.7,18.5L292,106.8c-4.8-26-23.5-47.2-48.7-55.3L217.2,43l0,0V1.1
								L157.2,0z"/>
						</g>
					</mask>
					
						<linearGradient id="Path-5_1_" gradientUnits="userSpaceOnUse" x1="-242.7661" y1="656.5057" x2="-242.7661" y2="655.5057" gradientTransform="matrix(144.7642 0 0 -196.6205 35245.4492 129357.5234)">
						<stop  offset="0" style="stop-color:#DCEAFB"/>
						<stop  offset="1" style="stop-color:#BED7F7;stop-opacity:0"/>
					</linearGradient>
					<path id="Path-5" class="st23" d="M174,293.9L91.2,275L29.2,471.6h135.2c2.4-35.7,4.2-63.9,5.3-84.6
						C170.8,366.3,172.2,335.3,174,293.9z"/>
					<defs>
						<filter id="Adobe_OpacityMaskFilter_9_" filterUnits="userSpaceOnUse" x="155.2" y="323.8" width="9.6" height="9.6">
							<feColorMatrix  type="matrix" values="1 0 0 0 0  0 1 0 0 0  0 0 1 0 0  0 0 0 1 0"/>
						</filter>
					</defs>
					<mask maskUnits="userSpaceOnUse" x="155.2" y="323.8" width="9.6" height="9.6" id="mask-5_9_">
						<g class="st24">
							<path id="path-4_9_" class="st3" d="M157.2,0l-3.6,38.1l-69.9,16C68,57.8,55.4,69.6,50.8,85.1L7.9,229.8
								c-4.5,15.2,3.4,31.2,18.1,37l60.2,23.5l0,0L58.3,423l225.9-2.1l-15.6-173l1,1c9,9,22.1,12.7,34.5,9.7l102.2-24.4l0,0
								c-5.5-11.4-9-20.7-10.5-27.9c-1.5-7.2-1.9-15.8-1-25.9l-85.7,18.5L292,106.8c-4.8-26-23.5-47.2-48.7-55.3L217.2,43l0,0V1.1
								L157.2,0z"/>
						</g>
					</mask>
					
						<ellipse id="Oval-Copy-2" transform="matrix(0.9659 -0.2588 0.2588 0.9659 -79.5961 52.6078)" class="st25" cx="160" cy="328.6" rx="4.8" ry="4.8"/>
					<defs>
						<filter id="Adobe_OpacityMaskFilter_10_" filterUnits="userSpaceOnUse" x="152" y="352.6" width="9.6" height="9.6">
							<feColorMatrix  type="matrix" values="1 0 0 0 0  0 1 0 0 0  0 0 1 0 0  0 0 0 1 0"/>
						</filter>
					</defs>
					<mask maskUnits="userSpaceOnUse" x="152" y="352.6" width="9.6" height="9.6" id="mask-5_10_">
						<g class="st26">
							<path id="path-4_10_" class="st3" d="M157.2,0l-3.6,38.1l-69.9,16C68,57.8,55.4,69.6,50.8,85.1L7.9,229.8
								c-4.5,15.2,3.4,31.2,18.1,37l60.2,23.5l0,0L58.3,423l225.9-2.1l-15.6-173l1,1c9,9,22.1,12.7,34.5,9.7l102.2-24.4l0,0
								c-5.5-11.4-9-20.7-10.5-27.9c-1.5-7.2-1.9-15.8-1-25.9l-85.7,18.5L292,106.8c-4.8-26-23.5-47.2-48.7-55.3L217.2,43l0,0V1.1
								L157.2,0z"/>
						</g>
					</mask>
					
						<ellipse id="Oval-Copy-3" transform="matrix(0.9659 -0.2588 0.2588 0.9659 -87.1591 52.7609)" class="st27" cx="156.8" cy="357.4" rx="4.8" ry="4.8"/>
					<defs>
						<filter id="Adobe_OpacityMaskFilter_11_" filterUnits="userSpaceOnUse" x="148.8" y="384.6" width="9.6" height="9.6">
							<feColorMatrix  type="matrix" values="1 0 0 0 0  0 1 0 0 0  0 0 1 0 0  0 0 0 1 0"/>
						</filter>
					</defs>
					<mask maskUnits="userSpaceOnUse" x="148.8" y="384.6" width="9.6" height="9.6" id="mask-5_11_">
						<g class="st28">
							<path id="path-4_11_" class="st3" d="M157.2,0l-3.6,38.1l-69.9,16C68,57.8,55.4,69.6,50.8,85.1L7.9,229.8
								c-4.5,15.2,3.4,31.2,18.1,37l60.2,23.5l0,0L58.3,423l225.9-2.1l-15.6-173l1,1c9,9,22.1,12.7,34.5,9.7l102.2-24.4l0,0
								c-5.5-11.4-9-20.7-10.5-27.9c-1.5-7.2-1.9-15.8-1-25.9l-85.7,18.5L292,106.8c-4.8-26-23.5-47.2-48.7-55.3L217.2,43l0,0V1.1
								L157.2,0z"/>
						</g>
					</mask>
					
						<ellipse id="Oval-Copy-4" transform="matrix(0.9659 -0.2588 0.2588 0.9659 -95.5503 53.0231)" class="st29" cx="153.6" cy="389.4" rx="4.8" ry="4.8"/>
					<defs>
						<filter id="Adobe_OpacityMaskFilter_12_" filterUnits="userSpaceOnUse" x="124.4" y="38.4" width="43.1" height="229.2">
							<feColorMatrix  type="matrix" values="1 0 0 0 0  0 1 0 0 0  0 0 1 0 0  0 0 0 1 0"/>
						</filter>
					</defs>
					<mask maskUnits="userSpaceOnUse" x="124.4" y="38.4" width="43.1" height="229.2" id="mask-5_12_">
						<g class="st30">
							<path id="path-4_12_" class="st3" d="M157.2,0l-3.6,38.1l-69.9,16C68,57.8,55.4,69.6,50.8,85.1L7.9,229.8
								c-4.5,15.2,3.4,31.2,18.1,37l60.2,23.5l0,0L58.3,423l225.9-2.1l-15.6-173l1,1c9,9,22.1,12.7,34.5,9.7l102.2-24.4l0,0
								c-5.5-11.4-9-20.7-10.5-27.9c-1.5-7.2-1.9-15.8-1-25.9l-85.7,18.5L292,106.8c-4.8-26-23.5-47.2-48.7-55.3L217.2,43l0,0V1.1
								L157.2,0z"/>
						</g>
					</mask>
					<path class="st31" d="M152.5,38.7l-25.9,51.1c-3.2,6.3-0.7,14,5.6,17.2c1,0.5,2,0.9,3.1,1.1l17.2,3.7l-12.8,7.4
						c-5.1,3-7.6,9.1-5.8,14.8c18.8,62.5,29.8,107,32.9,133.4"/>
					<defs>
						<filter id="Adobe_OpacityMaskFilter_13_" filterUnits="userSpaceOnUse" x="-13.4" y="58.9" width="187.1" height="258.7">
							<feColorMatrix  type="matrix" values="1 0 0 0 0  0 1 0 0 0  0 0 1 0 0  0 0 0 1 0"/>
						</filter>
					</defs>
					<mask maskUnits="userSpaceOnUse" x="-13.4" y="58.9" width="187.1" height="258.7" id="mask-5_13_">
						<g class="st32">
							<path id="path-4_13_" class="st3" d="M157.2,0l-3.6,38.1l-69.9,16C68,57.8,55.4,69.6,50.8,85.1L7.9,229.8
								c-4.5,15.2,3.4,31.2,18.1,37l60.2,23.5l0,0L58.3,423l225.9-2.1l-15.6-173l1,1c9,9,22.1,12.7,34.5,9.7l102.2-24.4l0,0
								c-5.5-11.4-9-20.7-10.5-27.9c-1.5-7.2-1.9-15.8-1-25.9l-85.7,18.5L292,106.8c-4.8-26-23.5-47.2-48.7-55.3L217.2,43l0,0V1.1
								L157.2,0z"/>
						</g>
					</mask>
					<path id="Path-184" class="st33" d="M78.4,287l76.8,30.6l18.5-50.6L73.4,227l33.2-107.7c6.6-21.3-2.1-44.4-21-56.1
						C72,54.8,54.3,59,45.9,72.5c-1.4,2.2-2.4,4.6-3.2,7.1l-56.2,193.3l0,0L78.4,287z"/>
					<defs>
						<filter id="Adobe_OpacityMaskFilter_14_" filterUnits="userSpaceOnUse" x="216.9" y="41.5" width="27.7" height="255.1">
							<feColorMatrix  type="matrix" values="1 0 0 0 0  0 1 0 0 0  0 0 1 0 0  0 0 0 1 0"/>
						</filter>
					</defs>
					<mask maskUnits="userSpaceOnUse" x="216.9" y="41.5" width="27.7" height="255.1" id="mask-5_14_">
						<g class="st34">
							<path id="path-4_14_" class="st3" d="M157.2,0l-3.6,38.1l-69.9,16C68,57.8,55.4,69.6,50.8,85.1L7.9,229.8
								c-4.5,15.2,3.4,31.2,18.1,37l60.2,23.5l0,0L58.3,423l225.9-2.1l-15.6-173l1,1c9,9,22.1,12.7,34.5,9.7l102.2-24.4l0,0
								c-5.5-11.4-9-20.7-10.5-27.9c-1.5-7.2-1.9-15.8-1-25.9l-85.7,18.5L292,106.8c-4.8-26-23.5-47.2-48.7-55.3L217.2,43l0,0V1.1
								L157.2,0z"/>
						</g>
					</mask>
					<path class="st35" d="M217.6,41.9l24.8,48.3c3.2,6.3,0.8,14-5.5,17.2c-0.8,0.4-1.6,0.7-2.5,1l-14.3,3.9l14.3,4.6
						c6.6,2.1,10.3,9.1,8.4,15.7c-15.9,55-23.5,109.7-22.6,164"/>
					<defs>
						<filter id="Adobe_OpacityMaskFilter_15_" filterUnits="userSpaceOnUse" x="256.1" y="89" width="159.3" height="194.2">
							<feColorMatrix  type="matrix" values="1 0 0 0 0  0 1 0 0 0  0 0 1 0 0  0 0 0 1 0"/>
						</filter>
					</defs>
					<mask maskUnits="userSpaceOnUse" x="256.1" y="89" width="159.3" height="194.2" id="mask-5_15_">
						<g class="st36">
							<path id="path-4_15_" class="st3" d="M157.2,0l-3.6,38.1l-69.9,16C68,57.8,55.4,69.6,50.8,85.1L7.9,229.8
								c-4.5,15.2,3.4,31.2,18.1,37l60.2,23.5l0,0L58.3,423l225.9-2.1l-15.6-173l1,1c9,9,22.1,12.7,34.5,9.7l102.2-24.4l0,0
								c-5.5-11.4-9-20.7-10.5-27.9c-1.5-7.2-1.9-15.8-1-25.9l-85.7,18.5L292,106.8c-4.8-26-23.5-47.2-48.7-55.3L217.2,43l0,0V1.1
								L157.2,0z"/>
						</g>
					</mask>
					
						<linearGradient id="Path-7_1_" gradientUnits="userSpaceOnUse" x1="-243.6112" y1="655.7327" x2="-243.1259" y2="655.9905" gradientTransform="matrix(159.2538 0 0 -194.2348 39022.2969 127602.4688)">
						<stop  offset="0" style="stop-color:#DCEAFB"/>
						<stop  offset="1" style="stop-color:#BED7F7;stop-opacity:0"/>
					</linearGradient>
					<path id="Path-7" class="st37" d="M256.1,89L268.4,249c8.2,25.4,26.3,36.7,54.2,33.9s58.8-16.7,92.8-41.8l-25.1-102.9L256.1,89
						z"/>
					<defs>
						<filter id="Adobe_OpacityMaskFilter_16_" filterUnits="userSpaceOnUse" x="380.4" y="224.9" width="4.8" height="4.8">
							<feColorMatrix  type="matrix" values="1 0 0 0 0  0 1 0 0 0  0 0 1 0 0  0 0 0 1 0"/>
						</filter>
					</defs>
					<mask maskUnits="userSpaceOnUse" x="380.4" y="224.9" width="4.8" height="4.8" id="mask-5_16_">
						<g class="st38">
							<path id="path-4_16_" class="st3" d="M157.2,0l-3.6,38.1l-69.9,16C68,57.8,55.4,69.6,50.8,85.1L7.9,229.8
								c-4.5,15.2,3.4,31.2,18.1,37l60.2,23.5l0,0L58.3,423l225.9-2.1l-15.6-173l1,1c9,9,22.1,12.7,34.5,9.7l102.2-24.4l0,0
								c-5.5-11.4-9-20.7-10.5-27.9c-1.5-7.2-1.9-15.8-1-25.9l-85.7,18.5L292,106.8c-4.8-26-23.5-47.2-48.7-55.3L217.2,43l0,0V1.1
								L157.2,0z"/>
						</g>
					</mask>
					<circle id="Oval" class="st39" cx="382.8" cy="227.3" r="2.4"/>
					<defs>
						<filter id="Adobe_OpacityMaskFilter_17_" filterUnits="userSpaceOnUse" x="369.6" y="227.8" width="4.8" height="4.8">
							<feColorMatrix  type="matrix" values="1 0 0 0 0  0 1 0 0 0  0 0 1 0 0  0 0 0 1 0"/>
						</filter>
					</defs>
					<mask maskUnits="userSpaceOnUse" x="369.6" y="227.8" width="4.8" height="4.8" id="mask-5_17_">
						<g class="st40">
							<path id="path-4_17_" class="st3" d="M157.2,0l-3.6,38.1l-69.9,16C68,57.8,55.4,69.6,50.8,85.1L7.9,229.8
								c-4.5,15.2,3.4,31.2,18.1,37l60.2,23.5l0,0L58.3,423l225.9-2.1l-15.6-173l1,1c9,9,22.1,12.7,34.5,9.7l102.2-24.4l0,0
								c-5.5-11.4-9-20.7-10.5-27.9c-1.5-7.2-1.9-15.8-1-25.9l-85.7,18.5L292,106.8c-4.8-26-23.5-47.2-48.7-55.3L217.2,43l0,0V1.1
								L157.2,0z"/>
						</g>
					</mask>
					<circle id="Oval-Copy" class="st41" cx="372" cy="230.2" r="2.4"/>
					<defs>
						<filter id="Adobe_OpacityMaskFilter_18_" filterUnits="userSpaceOnUse" x="358.8" y="230.7" width="4.8" height="4.8">
							<feColorMatrix  type="matrix" values="1 0 0 0 0  0 1 0 0 0  0 0 1 0 0  0 0 0 1 0"/>
						</filter>
					</defs>
					<mask maskUnits="userSpaceOnUse" x="358.8" y="230.7" width="4.8" height="4.8" id="mask-5_18_">
						<g class="st42">
							<path id="path-4_18_" class="st3" d="M157.2,0l-3.6,38.1l-69.9,16C68,57.8,55.4,69.6,50.8,85.1L7.9,229.8
								c-4.5,15.2,3.4,31.2,18.1,37l60.2,23.5l0,0L58.3,423l225.9-2.1l-15.6-173l1,1c9,9,22.1,12.7,34.5,9.7l102.2-24.4l0,0
								c-5.5-11.4-9-20.7-10.5-27.9c-1.5-7.2-1.9-15.8-1-25.9l-85.7,18.5L292,106.8c-4.8-26-23.5-47.2-48.7-55.3L217.2,43l0,0V1.1
								L157.2,0z"/>
						</g>
					</mask>
					<circle class="st43" cx="361.2" cy="233.1" r="2.4"/>
				</g>
				<path id="Path-153" class="st1" d="M151.9,76l0,0.3l0,0c-4.8-9.7-9.3-12.6-13.4-8.9c-3.7,3.4,3.4,23.7,6.5,27
					c2.1,2.1,4.3,2.1,6.6,0c0.6,11.1,6.2,21.4,15.3,27.9l10.1,7.2c10,7.1,23.3,7.4,33.5,0.6l1.1-0.7c11.4-7.6,18.6-20,19.6-33.6
					l0.2-3.4l0,0c8.1-10.7,11.3-18,9.5-21.9c-1.8-3.9-4.5-2.9-8.2,3.1l0.7-9.6c-1.1-4.3-1.9-8-2.5-10.9c-0.2-1.1-0.3-2.9-0.2-5.3
					l0,0c0.3-9.8-6.9-18.2-16.6-19.5c-29.6-3.8-45.6-2.9-48,2.7c-4.3,10-1.1,12.5-6.5,28.8c-0.6,1.9-1.5,3.5-2.7,4.7
					C154,67.7,152.2,71.7,151.9,76z"/>
				<path id="Path-180" class="st44" d="M182.4,108.8c9.3,10.7,17.6,10.7,25,0H182.4z"/>
				<g id="Group-2" transform="translate(155.200000, 57.514321)">
					<circle class="st45" cx="56.6" cy="13.1" r="12.5"/>
					<circle id="Oval-Copy-7" class="st45" cx="24" cy="13.1" r="12.5"/>
					<line id="Path-168" class="st46" x1="36.7" y1="13.1" x2="43.9" y2="13.1"/>
					<line id="Path-169" class="st46" x1="70.4" y1="13.1" x2="80.6" y2="10.2"/>
					<line id="Path-170" class="st46" x1="11.3" y1="13.1" x2="0" y2="8.5"/>
				</g>
				<g id="Path-187" transform="translate(170.502973, 379.925767)">
					<g>
						<path class="st1" d="M14.2,2.5c10.2-0.5,18.8-1,25.6-1.6C50,0,55.2,3.9,61.7,3.9s12.2,9.7,19.4,9.7s0.5,6.9-3.4,8.1
							c0.7,5.4-0.7,8.6-4.2,9.7c-0.1,5.3-4.8,10.4-14.3,15.4c-4.6,6-11.2,9.2-19.6,9.7c-12.6,0.7-13.1-1.4-31.1-14l-7.8-3.2
							L14.2,2.5z"/>
					</g>
					<defs>
						<filter id="Adobe_OpacityMaskFilter_19_" filterUnits="userSpaceOnUse" x="-8.8" y="-0.8" width="23.8" height="52.2">
							<feColorMatrix  type="matrix" values="1 0 0 0 0  0 1 0 0 0  0 0 1 0 0  0 0 0 1 0"/>
						</filter>
					</defs>
					<mask maskUnits="userSpaceOnUse" x="-8.8" y="-0.8" width="23.8" height="52.2" id="mask-11_1_">
						<g class="st47">
							<path id="path-10_1_" class="st3" d="M14.2,2.5c10.2-0.5,18.8-1,25.6-1.6C50,0,55.2,3.9,61.7,3.9s12.2,9.7,19.4,9.7
								s0.5,6.9-3.4,8.1c0.7,5.4-0.7,8.6-4.2,9.7c-0.1,5.3-4.8,10.4-14.3,15.4c-4.6,6-11.2,9.2-19.6,9.7c-12.6,0.7-13.1-1.4-31.1-14
								l-7.8-3.2L14.2,2.5z"/>
						</g>
					</mask>
					<polygon class="st48" points="15,-0.8 6.7,51.4 -8.8,41.3 					"/>
				</g>
				<polygon id="Rectangle-Copy-3" class="st6" points="173.6,377.3 185.5,381.1 170.7,421.8 159.1,417.1 				"/>
			</g>
		</g>
	</g>
</g>
<g>
	<g>
		
			<image style="overflow:visible;opacity:8.000000e-02;" width="137" height="146" xlink:href="50E1E3C05E08A5B.png"  transform="matrix(1 0 0 1 357.1491 113.2926)">
		</image>
		<g>
			<path class="st49" d="M381.7,157.8v36.5c0,4.2,2.2,8,5.9,10.1l32.4,18.4c3.6,2,7.9,2,11.5,0l32.4-18.4c3.6-2.1,5.9-5.9,5.9-10.1
				v-36.5c0-4.2-2.2-8-5.9-10.1l-32.4-18.4c-3.6-2-7.9-2-11.5,0l-32.4,18.4C383.9,149.8,381.7,153.7,381.7,157.8z"/>
		</g>
	</g>
	<g>
		<path class="st50" d="M419.8,154.6v14.3c0,5.5-0.8,10.6-2.5,15.3c-1.6,4.6-4.5,9.1-8.5,13.5l-6.9-5.9c4.8-5.7,7.4-11.3,8-16.8
			h-8.8v-20.2H419.8z M450.2,154.6v14.3c0,5.5-0.8,10.6-2.5,15.3c-1.6,4.6-4.5,9.1-8.5,13.5l-6.9-5.9c4.8-5.7,7.4-11.3,8-16.8h-8.8
			v-20.2H450.2z"/>
	</g>
</g>
</svg>
